<svg width="15" height="14" viewBox="0 0 15 14" fill="none" xmlns="http://www.w3.org/2000/svg">
<path d="M0.92338 7.70673L0.972004 7.63379L4.13246 2.69862C4.18108 2.62569 4.27832 2.62569 4.32695 2.72294C4.86179 3.91418 5.29939 5.37285 5.1049 6.29668C5.00766 6.68566 4.76455 7.19619 4.47281 7.65811C4.4485 7.73104 4.39988 7.80397 4.35126 7.85259C4.32695 7.8769 4.30264 7.90122 4.25401 7.90122H0.996315C0.923381 7.87691 0.874758 7.77966 0.92338 7.70673Z" fill="#7A65FB"/>
<path d="M15 8.63047V9.40843C15 9.45705 14.9757 9.48136 14.9271 9.50567C14.684 9.60291 13.8331 9.99189 13.4927 10.4781C12.5932 11.718 11.9125 13.4927 10.4052 13.4927H4.05997C1.82334 13.4927 0 11.6694 0 9.40843V9.33549C0 9.28687 0.0486227 9.23825 0.0972451 9.23825H3.67099C3.74392 9.23825 3.79254 9.31118 3.79254 9.3598C3.76823 9.5786 3.81686 9.82171 3.9141 10.0405C4.1329 10.4781 4.5705 10.7212 5.03241 10.7212H6.78282V9.3598H5.05672C4.95948 9.3598 4.91086 9.26256 4.95948 9.18962C4.98379 9.16531 5.0081 9.141 5.03241 9.09238C5.20259 8.84927 5.42139 8.50891 5.6645 8.09562C5.83468 7.8282 5.98055 7.51215 6.10211 7.22042C6.12642 7.1718 6.15073 7.12318 6.17504 7.05024C6.19935 6.953 6.24797 6.85575 6.27228 6.78282C6.2966 6.70988 6.32091 6.63695 6.34522 6.56402C6.39384 6.32091 6.41815 6.05348 6.41815 5.76175C6.41815 5.6645 6.41815 5.54295 6.39384 5.42139C6.39384 5.29983 6.36953 5.17828 6.36953 5.05672C6.36953 4.95948 6.34522 4.83792 6.32091 4.74068C6.29659 4.5705 6.27228 4.42463 6.22366 4.25446L6.19935 4.20583C6.17504 4.10859 6.15073 3.98703 6.10211 3.88979C6.00486 3.54943 5.88331 3.20908 5.76175 2.91734C5.71313 2.79579 5.66451 2.67423 5.61588 2.55267C5.54295 2.3825 5.47002 2.21232 5.39708 2.06645C5.37277 1.99352 5.32415 1.94489 5.29984 1.87196C5.27553 1.79903 5.2269 1.72609 5.20259 1.65316C5.17828 1.60453 5.15397 1.55591 5.12966 1.50729L4.91086 1.11831C4.88655 1.06969 4.93517 0.996758 4.98379 1.02107L6.32091 1.38574L6.49109 1.43436L6.68557 1.48298L6.75851 1.50729V0.705023C6.75851 0.316044 7.07455 0 7.43922 0C7.63371 0 7.80389 0.0729306 7.92545 0.194486C8.047 0.316042 8.11994 0.486221 8.11994 0.68071V1.84765L8.2658 1.89627C8.2658 1.89627 8.29011 1.89627 8.29011 1.92058C8.31442 1.94489 8.36305 1.99352 8.43598 2.04214C8.4846 2.09076 8.53323 2.13938 8.60616 2.18801C8.72771 2.28525 8.89789 2.43112 9.06807 2.57698C9.11669 2.62561 9.16531 2.64992 9.18963 2.69854C9.40843 2.89303 9.65154 3.13614 9.89465 3.40357C9.96759 3.4765 10.0162 3.54943 10.0891 3.62236C10.1621 3.6953 10.2107 3.79254 10.2836 3.86548C10.3566 3.96272 10.4538 4.08428 10.5267 4.18152C10.5511 4.23014 10.5997 4.27877 10.624 4.3517C10.7212 4.49757 10.7942 4.64343 10.8914 4.7893C10.9157 4.86224 10.9643 4.93517 10.9887 5.0081C11.0859 5.20259 11.1588 5.39708 11.1831 5.61588C11.2075 5.6645 11.2075 5.71313 11.2075 5.73744C11.2318 5.78606 11.2318 5.85899 11.2318 5.93193C11.2561 6.15073 11.2318 6.34522 11.2075 6.56402C11.1831 6.66126 11.1588 6.73419 11.1345 6.83144C11.1102 6.90437 11.0859 7.00162 11.0373 7.09886C10.9643 7.26904 10.8671 7.43922 10.7699 7.6094C10.7455 7.65802 10.6969 7.73095 10.6483 7.80389C10.5997 7.87682 10.5511 7.92544 10.5267 7.99838C10.4781 8.07131 10.4052 8.14424 10.3566 8.21718C10.3079 8.29011 10.2593 8.36305 10.1864 8.43598C10.1135 8.53322 10.0162 8.63047 9.94327 8.72771C9.89465 8.77633 9.84603 8.84927 9.7731 8.89789C9.72447 8.94651 9.67585 9.01945 9.60291 9.06807C9.52998 9.141 9.45705 9.21393 9.38412 9.26256L9.23825 9.38411C9.21394 9.40842 9.18963 9.40843 9.16532 9.40843H8.09562V10.7698H9.43274C9.72447 10.7698 10.0162 10.6726 10.235 10.4781C10.3079 10.4052 10.6483 10.1134 11.0616 9.67585C11.0859 9.65154 11.0859 9.65154 11.1102 9.65154L14.8055 8.58184C14.9514 8.50891 15 8.55754 15 8.63047Z" fill="#7A65FB"/>
</svg>
