
<svg width="25" height="25" viewBox="0 0 25 25" fill="none" xmlns="http://www.w3.org/2000/svg">
<path d="M17.839 8.00037C17.5363 8.01043 17.2495 8.13825 17.0396 8.35643C14.7874 10.6135 12.7328 12.8339 10.5572 15.0498L7.88997 12.9206C7.64908 12.7279 7.34152 12.6387 7.03475 12.6727C6.72816 12.7068 6.44768 12.8614 6.25483 13.1023C6.06211 13.3432 5.97305 13.6507 6.00712 13.9575C6.04119 14.2641 6.19562 14.5447 6.43652 14.7374L9.92483 17.528C10.1485 17.7065 10.43 17.7962 10.7155 17.78C11.0011 17.7639 11.2707 17.6432 11.4728 17.4408C13.9773 14.9309 16.2253 12.4612 18.682 9.99904H18.6819C18.9081 9.78037 19.0361 9.47928 19.0366 9.16442C19.0371 8.84972 18.9099 8.54832 18.6841 8.32901C18.4585 8.1097 18.1535 7.99111 17.839 8.00052L17.839 8.00037Z" fill="#A0A1A9"/>
<rect x="1" y="1" width="23" height="23" rx="3" stroke="#A0A1A9" stroke-width="2"/>
</svg>
