<svg width="14" height="16" viewBox="0 0 14 16" fill="none" xmlns="http://www.w3.org/2000/svg">
<path d="M6.68833 16C6.17418 16 1.66543 15.9491 1.66543 14.184L0.427261 3.73544C0.389394 3.41046 0.621739 3.11542 0.946914 3.07721C1.26492 3.03474 1.56694 3.27095 1.60553 3.59629L2.8461 14.1037C3.09242 14.3585 4.43555 14.814 6.68842 14.814C8.95362 14.814 10.2999 14.3522 10.5341 14.0975L11.7708 3.59615C11.8092 3.27117 12.1074 3.0357 12.4294 3.07706C12.7544 3.1153 12.9868 3.41014 12.9491 3.7353L11.7059 14.2535C11.7098 15.9491 7.20257 16 6.68866 16H6.68833Z" fill="#A0A1A9"/>
<path d="M8.21524 2.47385C7.88786 2.47385 7.62222 2.20823 7.62222 1.88083C7.62222 1.50401 7.1954 1.18598 6.68955 1.18598C6.18312 1.18598 5.75537 1.50399 5.75537 1.88083C5.75537 2.20821 5.48975 2.47385 5.16235 2.47385C4.83495 2.47385 4.56934 2.20823 4.56934 1.88083C4.56934 0.843925 5.52041 0 6.68931 0C7.85746 0 8.80783 0.843737 8.80783 1.88083C8.80802 2.20839 8.5424 2.47385 8.21519 2.47385H8.21524Z" fill="#A0A1A9"/>
<path d="M4.38916 13.8165C4.08182 13.8165 3.8217 13.5788 3.79854 13.2669L3.32082 6.76828C3.29692 6.44182 3.5425 6.1571 3.86894 6.13319C4.1954 6.11481 4.47961 6.35487 4.50346 6.68098L4.98119 13.1796C5.00509 13.5059 4.75951 13.7899 4.43307 13.8147C4.41854 13.816 4.40384 13.8163 4.38913 13.8163L4.38916 13.8165Z" fill="#A0A1A9"/>
<path d="M8.98746 13.8166C8.97276 13.8166 8.95824 13.816 8.94353 13.8149C8.61707 13.7901 8.3715 13.5061 8.39541 13.1798L8.87313 6.6812C8.89795 6.35492 9.19353 6.11411 9.50765 6.13341C9.83411 6.1573 10.0797 6.44167 10.0558 6.76849L9.57805 13.2671C9.55489 13.579 9.29479 13.8167 8.98743 13.8167L8.98746 13.8166Z" fill="#A0A1A9"/>
<path d="M6.68823 13.8165C6.36085 13.8165 6.09521 13.5509 6.09521 13.2235V6.72491C6.09521 6.39753 6.36083 6.1319 6.68823 6.1319C7.01563 6.1319 7.28125 6.39751 7.28125 6.72491V13.224C7.28125 13.551 7.01563 13.8166 6.68823 13.8166V13.8165Z" fill="#A0A1A9"/>
<path d="M6.68825 5.54904C3.36464 5.54904 0 4.56748 0 2.6914C0 1.55962 1.27789 0.633723 3.50671 0.152138C3.82159 0.0822867 4.14198 0.286511 4.21163 0.606166C4.28037 0.92656 4.07725 1.242 3.75686 1.31108C1.88393 1.7164 1.18598 2.37265 1.18598 2.69137C1.18598 3.35681 3.38078 4.36317 6.68839 4.36317C9.99581 4.36317 12.1908 3.35676 12.1908 2.69137C12.1908 2.36142 11.4634 1.68848 9.51112 1.28793C9.18981 1.22213 8.983 0.908533 9.04937 0.587767C9.11499 0.267005 9.42785 0.0603956 9.74878 0.126017C12.054 0.599366 13.3766 1.53425 13.3766 2.69139C13.3764 4.56742 10.0118 5.54904 6.68836 5.54904L6.68825 5.54904Z" fill="#A0A1A9"/>
</svg>
