<svg width="43" height="43" viewBox="0 0 43 43" fill="none" xmlns="http://www.w3.org/2000/svg">
<rect width="43" height="43" rx="5" fill="#A0A1A9"/>
<g clip-path="url(#clip0_863_3)">
<path d="M28.2378 16.2468C27.0905 15.7182 25.8602 15.3288 24.5739 15.1058C24.5505 15.1015 24.5271 15.1122 24.515 15.1338C24.3568 15.4163 24.1815 15.7849 24.0588 16.0746C22.6753 15.8667 21.2989 15.8667 19.9437 16.0746C19.821 15.7785 19.6394 15.4163 19.4804 15.1338C19.4684 15.113 19.445 15.1022 19.4215 15.1058C18.1359 15.3281 16.9057 15.7175 15.7577 16.2468C15.7478 16.2511 15.7392 16.2582 15.7336 16.2676C13.4 19.7679 12.7608 23.1822 13.0744 26.5542C13.0758 26.5707 13.085 26.5865 13.0978 26.5965C14.6374 27.7318 16.1288 28.4209 17.5925 28.8777C17.6159 28.8849 17.6407 28.8763 17.6556 28.8569C18.0018 28.3822 18.3105 27.8817 18.5751 27.3553C18.5907 27.3244 18.5758 27.2879 18.5439 27.2757C18.0543 27.0892 17.5882 26.8619 17.1398 26.6037C17.1043 26.5829 17.1015 26.532 17.1341 26.5076C17.2285 26.4366 17.3229 26.3627 17.413 26.2882C17.4293 26.2745 17.452 26.2717 17.4711 26.2803C20.417 27.6307 23.6062 27.6307 26.5172 26.2803C26.5364 26.2709 26.5591 26.2738 26.5761 26.2874C26.6662 26.362 26.7606 26.4366 26.8557 26.5076C26.8883 26.532 26.8862 26.5829 26.8507 26.6037C26.4023 26.8669 25.9361 27.0892 25.4459 27.2749C25.414 27.2871 25.3998 27.3244 25.4154 27.3553C25.6857 27.8809 25.9943 28.3815 26.3342 28.8562C26.3484 28.8763 26.3739 28.8849 26.3973 28.8777C27.8681 28.4209 29.3595 27.7318 30.8991 26.5965C30.9126 26.5865 30.9211 26.5714 30.9225 26.5549C31.2978 22.6566 30.2939 19.2702 28.2612 16.2683C28.2562 16.2582 28.2477 16.2511 28.2378 16.2468ZM19.015 24.501C18.1281 24.501 17.3973 23.6835 17.3973 22.6795C17.3973 21.6755 18.114 20.858 19.015 20.858C19.9232 20.858 20.6469 21.6827 20.6327 22.6795C20.6327 23.6835 19.9161 24.501 19.015 24.501ZM24.9961 24.501C24.1092 24.501 23.3784 23.6835 23.3784 22.6795C23.3784 21.6755 24.095 20.858 24.9961 20.858C25.9042 20.858 26.6279 21.6827 26.6137 22.6795C26.6137 23.6835 25.9042 24.501 24.9961 24.501Z" fill="white"/>
</g>
<defs>
<clipPath id="clip0_863_3">
<rect width="18" height="14" fill="white" transform="translate(13 15)"/>
</clipPath>
</defs>
</svg>
