<svg width="13" height="4" viewBox="0 0 13 4" fill="none" xmlns="http://www.w3.org/2000/svg">
<path d="M7.29902 3.25006C7.75942 3.25006 8.12507 2.88441 8.12507 2.42401L8.12497 0.839628C8.12497 0.379232 7.75932 0.0135803 7.29893 0.0135803H5.70105C5.24065 0.0135803 4.875 0.379232 4.875 0.839628V2.43751C4.875 2.8979 5.24065 3.26355 5.70105 3.26355H7.29902L7.29902 3.25006Z" fill="#1D1C32"/>
<path d="M2.42402 2.43529e-05H0.826047C0.365652 2.43529e-05 0 0.365676 0 0.826071V2.42395C0 2.88435 0.365652 3.25 0.826047 3.25H2.42393C2.88432 3.25 3.24997 2.88435 3.24997 2.42395V0.839662C3.24997 0.379266 2.88442 0 2.42402 0V2.43529e-05Z" fill="#1D1C32"/>
<path d="M12.174 2.43529e-05H10.576C10.1157 2.43529e-05 9.75 0.365676 9.75 0.826071V2.42395C9.75 2.88435 10.1157 3.25 10.576 3.25H12.1739C12.6343 3.25 13 2.88435 13 2.42395V0.839662C13 0.379266 12.6344 0 12.174 0V2.43529e-05Z" fill="#1D1C32"/>
</svg>
