
<svg width="19" height="19" viewBox="0 0 19 19" fill="none" xmlns="http://www.w3.org/2000/svg">
<path d="M6.30282 3.31787C6.34284 3.22125 6.34284 3.11205 6.30282 3.01543C6.28267 2.9668 6.25378 2.9228 6.21694 2.88635L5.42575 2.09516C5.27095 1.94036 5.02085 1.94036 4.86608 2.09516C4.7113 2.24995 4.71128 2.50005 4.86608 2.65483L4.98191 2.77093H3.56251V1.35139L3.67848 1.46736C3.75561 1.54462 3.85699 1.58345 3.95838 1.58345C4.05976 1.58345 4.16102 1.54462 4.23828 1.46749C4.39308 1.3127 4.39308 1.0626 4.23828 0.90782L3.44695 0.116491C3.41051 0.0796494 3.36664 0.0507566 3.31787 0.0306138C3.22125 -0.0102046 3.11205 -0.0102046 3.01543 0.0306138C2.9668 0.0507583 2.92293 0.0796494 2.88648 0.116491L2.09515 0.907684C1.94036 1.06248 1.94036 1.31258 2.09515 1.46735C2.24995 1.62213 2.50005 1.62215 2.65482 1.46735L2.77092 1.35139V2.77092H1.35139L1.46735 2.65496C1.62215 2.50016 1.62215 2.25006 1.46735 2.09529C1.31256 1.94051 1.06246 1.94049 0.907684 2.09529L0.116491 2.88648C0.0796492 2.92292 0.0507566 2.96679 0.0306138 3.01543C-0.0102046 3.11205 -0.0102046 3.22125 0.0306138 3.31787C0.0507583 3.3665 0.0796492 3.41051 0.116491 3.44695L0.907684 4.23814C0.984947 4.31541 1.0862 4.35411 1.18759 4.35411C1.28897 4.35411 1.39023 4.31528 1.46749 4.23814C1.62228 4.08335 1.62228 3.83325 1.46749 3.67847L1.35139 3.56251H2.77093V4.9819L2.65496 4.86594C2.50017 4.71115 2.25007 4.71115 2.09529 4.86594C1.94051 5.02073 1.9405 5.27083 2.09529 5.42561L2.88648 6.2168C2.92293 6.25364 2.9668 6.28254 3.01557 6.30268C3.06381 6.32296 3.11523 6.33329 3.16665 6.33329C3.21807 6.33329 3.26963 6.32296 3.31787 6.30281C3.3665 6.28267 3.41051 6.25378 3.44695 6.21694L4.23814 5.42574C4.39294 5.27095 4.39294 5.02085 4.23814 4.86607C4.08335 4.71129 3.83325 4.71128 3.67847 4.86607L3.56251 4.9819V3.56251H4.9819L4.86594 3.67847C4.71114 3.83327 4.71114 4.08336 4.86594 4.23814C4.94307 4.31541 5.04446 4.35411 5.14584 4.35411C5.24723 4.35411 5.34848 4.31528 5.42575 4.23814L6.21694 3.44695C6.25365 3.41051 6.28254 3.36664 6.30282 3.31787V3.31787Z" fill="#A0A1A9"/>
<path d="M17.4161 7.52086C17.1264 7.52086 16.8584 7.60475 16.6245 7.74139V7.52086C16.6245 6.64763 15.9144 5.93752 15.0412 5.93752C14.7447 5.93752 14.4704 6.02459 14.2325 6.16667C14.1482 5.37269 13.4829 4.75005 12.6662 4.75005C12.3765 4.75005 12.1085 4.83395 11.8746 4.97058V1.58352C11.8746 0.710289 11.1645 0.000183105 10.2913 0.000183105C9.41805 0.000183105 8.70795 0.710289 8.70795 1.58352V7.15681L8.70808 9.89593C8.70808 10.1149 8.53115 10.2918 8.31221 10.2918C8.09327 10.2918 7.91634 10.1149 7.91634 9.89593V7.39868C6.98174 7.84398 6.33301 8.79317 6.33301 9.89593V12.6667C6.33301 16.1586 9.17418 19 12.6663 19C16.1581 19 18.9996 16.1588 18.9996 12.6667V9.10433C18.9996 8.2311 18.2894 7.52099 17.4162 7.52099L17.4161 7.52086Z" fill="#A0A1A9"/>
</svg>
