
<svg width="17" height="12" viewBox="0 0 17 12" fill="none" xmlns="http://www.w3.org/2000/svg">
<path d="M14.3912 0.994734C13.3077 0.534315 12.1458 0.195098 10.9309 0.000814994C10.9088 -0.00293462 10.8867 0.00643586 10.8753 0.0251773C10.7259 0.27131 10.5604 0.592411 10.4444 0.844794C9.13779 0.663633 7.83784 0.663633 6.55798 0.844794C6.44204 0.586801 6.27051 0.27131 6.12041 0.0251773C6.10901 0.00706117 6.08691 -0.00230931 6.06479 0.000814994C4.8506 0.194478 3.68869 0.533694 2.6045 0.994734C2.59511 0.998482 2.58706 1.00473 2.58173 1.01285C0.377819 4.06208 -0.225923 7.03635 0.0702526 9.97375C0.0715927 9.98812 0.0803036 10.0019 0.0923653 10.0106C1.54644 10.9995 2.95496 11.5999 4.33732 11.9978C4.35945 12.0041 4.38289 11.9966 4.39697 11.9797C4.72396 11.5662 5.01545 11.1301 5.26538 10.6715C5.28013 10.6447 5.26605 10.6128 5.2359 10.6022C4.77355 10.4398 4.3333 10.2417 3.90981 10.0169C3.87631 9.99874 3.87363 9.95437 3.90445 9.93313C3.99356 9.87129 4.08271 9.80694 4.1678 9.74197C4.1832 9.73011 4.20465 9.7276 4.22275 9.7351C7.00491 10.9114 10.0169 10.9114 12.7663 9.7351C12.7844 9.72698 12.8058 9.72949 12.8219 9.74135C12.907 9.80632 12.9961 9.87129 13.0859 9.93313C13.1167 9.95437 13.1147 9.99874 13.0812 10.0169C12.6577 10.2461 12.2175 10.4398 11.7544 10.6016C11.7243 10.6122 11.7109 10.6447 11.7256 10.6715C11.9809 11.1295 12.2724 11.5655 12.5934 11.9791C12.6068 11.9966 12.6309 12.0041 12.653 11.9978C14.0421 11.5999 15.4506 10.9995 16.9047 10.0106C16.9174 10.0019 16.9255 9.98874 16.9268 9.97437C17.2813 6.57842 16.3331 3.62853 14.4133 1.01347C14.4086 1.00473 14.4006 0.998482 14.3912 0.994734ZM5.68085 8.18518C4.84323 8.18518 4.15305 7.47302 4.15305 6.59842C4.15305 5.72381 4.82984 5.01165 5.68085 5.01165C6.53853 5.01165 7.22203 5.73006 7.20862 6.59842C7.20862 7.47302 6.53183 8.18518 5.68085 8.18518ZM11.3296 8.18518C10.492 8.18518 9.80184 7.47302 9.80184 6.59842C9.80184 5.72381 10.4786 5.01165 11.3296 5.01165C12.1873 5.01165 12.8708 5.73006 12.8574 6.59842C12.8574 7.47302 12.1873 8.18518 11.3296 8.18518Z" fill="#7A65FB"/>
</svg>
