<svg width="13" height="13" viewBox="0 0 13 13" fill="none" xmlns="http://www.w3.org/2000/svg">
<path d="M12.7051 3.5972L11.2392 2.13123C10.9949 1.88695 10.6012 1.88695 10.3569 2.13123C10.1126 2.37551 10.1126 2.7692 10.3569 3.01348L11.6464 4.30297V8.67373C11.6464 8.8773 11.4699 9.05379 11.2663 9.05379C11.0628 9.05379 10.8863 8.87731 10.8863 8.67373C10.8863 7.64214 10.0447 6.80052 9.01307 6.80052H8.9859V0.624443C8.9859 0.271549 8.7008 0 8.36146 0L1.58813 9.4637e-05C1.24879 9.4637e-05 0.963691 0.271546 0.963691 0.624538V11.1171H0.624443C0.285098 11.1171 0 11.4022 0 11.7415C0 12.0944 0.285098 12.366 0.624443 12.366H9.31167C9.65102 12.366 9.93612 12.0945 9.93612 11.7415C9.93612 11.4022 9.65102 11.1171 9.31167 11.1171H8.97233V8.0494H8.9995C9.33885 8.0494 9.62394 8.3345 9.62394 8.67385C9.62394 9.56974 10.3569 10.3027 11.2528 10.3027C12.1487 10.3027 12.8816 9.56974 12.8816 8.67385V4.04518C12.8951 3.88233 12.8273 3.71934 12.7051 3.5972ZM4.96808 10.1262C4.28939 10.1262 3.73284 9.56965 3.73284 8.89096C3.73284 8.34805 4.5066 7.13999 4.8323 6.66485C4.90019 6.56979 5.0495 6.56979 5.1174 6.66485C5.44319 7.13999 6.21685 8.33441 6.21685 8.89096C6.20331 9.56974 5.64677 10.1262 4.96808 10.1262ZM7.72357 4.69668H2.2126V1.24893H7.72357V4.69668Z" fill="#A0A1A9"/>
</svg>
