<svg width="14" height="17" viewBox="0 0 14 17" fill="none" xmlns="http://www.w3.org/2000/svg">
<path d="M1.14004 5.37102H10.0245L8.81453 6.50527C8.51733 6.78218 8.39048 7.19645 8.48172 7.59233C8.57297 7.98817 8.8686 8.30518 9.25675 8.42407C9.6452 8.543 10.0674 8.44569 10.3646 8.16879L13.6537 5.06856C13.8754 4.84862 13.9999 4.54931 13.9999 4.23683C13.9999 3.92459 13.8754 3.62527 13.6537 3.40509L10.3646 0.304863V0.305127C10.0674 0.0282243 9.64521 -0.0690861 9.25675 0.0498545C8.86856 0.168788 8.57293 0.485771 8.48172 0.881587C8.39048 1.27742 8.51732 1.69172 8.81453 1.96865L10.0245 3.1029H1.14004C0.734972 3.1029 0.360489 3.31888 0.157956 3.66988C-0.0448396 4.02088 -0.0448396 4.45314 0.157956 4.80413C0.360489 5.15487 0.734965 5.37111 1.14004 5.37111V5.37102Z" fill="white"/>
<path d="M3.63532 16.486C3.93252 16.7629 4.35471 16.8602 4.74317 16.7413C5.13136 16.6223 5.42698 16.3054 5.51819 15.9095C5.60944 15.5137 5.48259 15.0994 5.18538 14.8225L3.97546 13.6882H12.8599C13.2649 13.6882 13.6394 13.4722 13.842 13.1212C14.0448 12.7702 14.0448 12.338 13.842 11.987C13.6394 11.6363 13.265 11.42 12.8599 11.42H3.97546L5.18538 10.2858C5.48259 10.0089 5.60943 9.59459 5.51819 9.19871C5.42694 8.80287 5.13132 8.48586 4.74317 8.36697C4.35472 8.24804 3.9325 8.34535 3.63532 8.62225L0.346256 11.7225C0.124469 11.9424 0 12.2417 0 12.5542C0 12.8664 0.124476 13.1658 0.346256 13.3859L3.63532 16.486Z" fill="white"/>
</svg>
