
<svg width="13" height="12" viewBox="0 0 13 12" fill="none" xmlns="http://www.w3.org/2000/svg">
<path d="M3.81867 0C2.6745 0 1.69182 0.543081 1.02911 1.34962C0.366344 2.15618 0 3.22054 0 4.3334C0 6.16948 0.752343 7.55423 1.89128 8.6667C3.03021 9.77925 4.5333 10.6731 6.18408 11.7495L6.50005 11.9527L6.81602 11.7495C8.4667 10.673 9.96979 9.77915 11.1088 8.6667C12.2477 7.55415 13 6.16948 13 4.3334C13 3.22065 12.6336 2.15628 11.9709 1.34962C11.3081 0.543055 10.3256 0 9.18133 0C8.02254 0 7.09861 0.478288 6.5001 0.94337C5.90162 0.478288 4.9777 0 3.81887 0H3.81867ZM3.81867 1.15557C4.84455 1.15557 5.78472 1.79264 6.08909 2.10348L6.49987 2.52776L6.91066 2.10348C7.21505 1.79264 8.15519 1.15557 9.18107 1.15557C9.96909 1.15557 10.6011 1.50198 11.0769 2.08091C11.5527 2.65985 11.8442 3.47709 11.8442 4.3333C11.8442 5.87265 11.2967 6.86751 10.305 7.83605C9.38118 8.73841 8.02862 9.58074 6.49995 10.5714C4.97117 9.58082 3.61856 8.73851 2.6949 7.83605C1.70327 6.86738 1.15565 5.87263 1.15565 4.3333C1.15565 3.47698 1.44724 2.65985 1.923 2.08091C2.39876 1.50198 3.03081 1.15557 3.81882 1.15557H3.81867Z" fill="#A0A1A9"/>
</svg>
