
<svg width="43" height="43" viewBox="0 0 43 43" fill="none" xmlns="http://www.w3.org/2000/svg">
<rect width="43" height="43" rx="5" fill="#F5F4F6"/>
<path d="M18.4526 27.9156H20.0564C20.0564 28.7126 20.7025 29.359 21.4997 29.359C22.2969 29.359 22.9431 28.7126 22.9431 27.9156H24.5469C24.5469 29.5984 23.1827 30.9628 21.4997 30.9628C19.8167 30.9628 18.4526 29.5984 18.4526 27.9156ZM29.9999 25.6697V25.9917C29.9999 26.7909 29.3537 27.4344 28.5561 27.4344H14.4438C13.6464 27.4344 13 26.7889 13 25.9917V25.6697C13 24.5069 13.8265 23.537 14.9244 23.3132V19.5756C14.9244 15.9431 17.868 13 21.5 13C25.132 13 28.0756 15.9436 28.0756 19.5756V23.313C29.1748 23.5363 30 24.5057 30 25.6697H29.9999ZM28.3961 25.6697C28.3961 25.2265 28.0379 24.8683 27.5913 24.8683C26.9724 24.8683 26.4716 24.3637 26.4716 23.7479V19.5756C26.4716 16.8296 24.2461 14.604 21.4998 14.604C18.7536 14.604 16.528 16.8289 16.528 19.5756V23.7479C16.528 24.3664 16.0246 24.8683 15.4084 24.8683C14.9636 24.8683 14.6036 25.2278 14.6036 25.6697V25.8306H28.3962L28.3961 25.6697Z" fill="#A0A1A9"/>
</svg>
