<svg width="18" height="17" viewBox="0 0 18 17" fill="none" xmlns="http://www.w3.org/2000/svg">
<path d="M1.10894 9.24814L1.16728 9.16061L4.95983 3.23841C5.01817 3.15089 5.13487 3.15089 5.19321 3.26759C5.83503 4.69708 6.36015 6.44749 6.12676 7.55608C6.01007 8.02285 5.71834 8.6355 5.36826 9.18979C5.33908 9.27731 5.28074 9.36483 5.22239 9.42317C5.19322 9.45235 5.16404 9.48152 5.10569 9.48152H1.19646C1.10894 9.45235 1.05059 9.33566 1.10894 9.24814Z" fill="#A0A1A9"/>
<path d="M18 10.3566V11.2901C18 11.3485 17.9708 11.3776 17.9125 11.4068C17.6207 11.5235 16.5997 11.9903 16.1912 12.5737C15.1118 14.0616 14.295 16.1912 12.4862 16.1912H4.87196C2.18801 16.1912 0 14.0032 0 11.2901V11.2026C0 11.1442 0.0583473 11.0859 0.116694 11.0859H4.40519C4.49271 11.0859 4.55105 11.1734 4.55105 11.2318C4.52188 11.4943 4.58023 11.7861 4.69692 12.0486C4.95948 12.5737 5.4846 12.8655 6.0389 12.8655H8.13938V11.2318H6.06807C5.95138 11.2318 5.89303 11.1151 5.95138 11.0275C5.98055 10.9984 6.00972 10.9692 6.0389 10.9109C6.24311 10.6191 6.50567 10.2107 6.79741 9.71474C7.00162 9.39384 7.17666 9.01459 7.32253 8.6645C7.3517 8.60616 7.38088 8.54781 7.41005 8.46029C7.43922 8.3436 7.49757 8.2269 7.52674 8.13938C7.55591 8.05186 7.58509 7.96434 7.61426 7.87682C7.67261 7.58509 7.70178 7.26418 7.70178 6.9141C7.70178 6.79741 7.70178 6.65154 7.67261 6.50567C7.67261 6.3598 7.64344 6.21393 7.64344 6.06807C7.64344 5.95137 7.61426 5.80551 7.58509 5.68882C7.55591 5.4846 7.52674 5.30956 7.46839 5.10535L7.43922 5.047C7.41005 4.9303 7.38087 4.78444 7.32253 4.66775C7.20583 4.25932 7.05997 3.85089 6.9141 3.50081C6.85575 3.35494 6.79741 3.20908 6.73906 3.06321C6.65154 2.859 6.56402 2.65478 6.4765 2.47974C6.44732 2.39222 6.38898 2.33387 6.3598 2.24635C6.33063 2.15883 6.27229 2.07131 6.24311 1.98379C6.21394 1.92544 6.18476 1.8671 6.15559 1.80875L5.89303 1.34197C5.86386 1.28363 5.9222 1.19611 5.98055 1.22528L7.58509 1.66288L7.7893 1.72123L8.02269 1.77958L8.11021 1.80875V0.846027C8.11021 0.379253 8.48946 0 8.92707 0C9.16045 0 9.36467 0.0875167 9.51053 0.233384C9.6564 0.379251 9.74392 0.583465 9.74392 0.816852V2.21718L9.91896 2.27552C9.91896 2.27552 9.94814 2.27552 9.94814 2.3047C9.97731 2.33387 10.0357 2.39222 10.1232 2.45057C10.1815 2.50891 10.2399 2.56726 10.3274 2.62561C10.4733 2.7423 10.6775 2.91734 10.8817 3.09238C10.94 3.15073 10.9984 3.1799 11.0276 3.23825C11.2901 3.47163 11.5818 3.76337 11.8736 4.08428C11.9611 4.1718 12.0194 4.25932 12.107 4.34684C12.1945 4.43436 12.2528 4.55105 12.3404 4.63857C12.4279 4.75527 12.5446 4.90113 12.6321 5.01783C12.6613 5.07617 12.7196 5.13452 12.7488 5.22204C12.8655 5.39708 12.953 5.57212 13.0697 5.74716C13.0989 5.83468 13.1572 5.9222 13.1864 6.00972C13.3031 6.24311 13.3906 6.4765 13.4198 6.73906C13.4489 6.7974 13.4489 6.85575 13.4489 6.88492C13.4781 6.94327 13.4781 7.03079 13.4781 7.11831C13.5073 7.38087 13.4781 7.61426 13.4489 7.87682C13.4198 7.99352 13.3906 8.08103 13.3614 8.19773C13.3323 8.28525 13.3031 8.40194 13.2447 8.51864C13.1572 8.72285 13.0405 8.92706 12.9238 9.13128C12.8946 9.18962 12.8363 9.27714 12.778 9.36466C12.7196 9.45219 12.6613 9.51053 12.6321 9.59805C12.5737 9.68557 12.4862 9.77309 12.4279 9.86061C12.3695 9.94813 12.3112 10.0357 12.2237 10.1232C12.1361 10.2399 12.0194 10.3566 11.9319 10.4733C11.8736 10.5316 11.8152 10.6191 11.7277 10.6775C11.6694 10.7358 11.611 10.8233 11.5235 10.8817C11.436 10.9692 11.3485 11.0567 11.2609 11.1151L11.0859 11.2609C11.0567 11.2901 11.0276 11.2901 10.9984 11.2901H9.71475V12.9238H11.3193C11.6694 12.9238 12.0194 12.8071 12.282 12.5737C12.3695 12.4862 12.778 12.1361 13.2739 11.611C13.3031 11.5818 13.3031 11.5818 13.3323 11.5818L17.7666 10.2982C17.9417 10.2107 18 10.269 18 10.3566Z" fill="#A0A1A9"/>
</svg>
