
<svg width="12" height="12" viewBox="0 0 12 12" fill="none" xmlns="http://www.w3.org/2000/svg">
<path d="M10.7995 4.79967V10.1995C10.7995 10.3587 10.7362 10.5112 10.6237 10.6237C10.5112 10.7362 10.3586 10.7995 10.1994 10.7995H1.79993C1.64073 10.7995 1.48816 10.7362 1.37566 10.6237C1.26317 10.5112 1.19989 10.3587 1.19989 10.1995V1.79996C1.19989 1.64076 1.26317 1.48818 1.37566 1.37569C1.48816 1.26319 1.64074 1.19992 1.79993 1.19992H7.19972C7.41406 1.19992 7.61214 1.08561 7.71931 0.899996C7.82648 0.714379 7.82648 0.485575 7.71931 0.29995C7.61214 0.114326 7.41407 3.05176e-05 7.19972 3.05176e-05H1.79993C1.32254 3.05176e-05 0.864712 0.189666 0.527122 0.527153C0.189636 0.864743 0 1.32257 0 1.79996V10.1995C0 10.6769 0.189636 11.1347 0.527122 11.4723C0.864712 11.8098 1.32254 11.9994 1.79993 11.9994H10.1994C10.6768 11.9994 11.1347 11.8098 11.4722 11.4723C11.8097 11.1347 11.9994 10.6769 11.9994 10.1995V4.79967C11.9994 4.58533 11.8851 4.38726 11.6994 4.28008C11.5138 4.17291 11.285 4.17291 11.0994 4.28008C10.9138 4.38726 10.7995 4.58532 10.7995 4.79967Z" fill="#A0A1A9"/>
<path d="M11.4001 0H9.60017C9.38583 0 9.18776 0.114303 9.08058 0.29992C8.97341 0.485536 8.97341 0.714341 9.08058 0.899965C9.18776 1.08559 9.38583 1.19989 9.60017 1.19989H9.95414L5.5744 5.57372C5.42223 5.72589 5.36276 5.94777 5.41851 6.15558C5.47416 6.3635 5.63657 6.52591 5.84448 6.58155C6.05229 6.6373 6.27417 6.57783 6.42634 6.42566L10.8002 2.04592V2.39989C10.8002 2.61423 10.9145 2.8123 11.1001 2.91947C11.2857 3.02665 11.5145 3.02665 11.7001 2.91947C11.8858 2.8123 12.0001 2.61423 12.0001 2.39989V0.599955C12.0001 0.440854 11.9369 0.288182 11.8244 0.175686C11.7119 0.0631904 11.5592 1.28496e-05 11.4001 1.28496e-05L11.4001 0Z" fill="#A0A1A9"/>
</svg>
