<svg width="12" height="13" viewBox="0 0 12 13" fill="none" xmlns="http://www.w3.org/2000/svg">
<path d="M10.8323 6.21761H9.62838C9.40765 6.21761 9.22706 6.3982 9.22706 6.61893V7.22091C9.22706 9.3479 7.38099 11.0534 5.19368 10.8126C3.54827 10.632 2.20374 9.28759 2.02326 7.64218C1.78247 5.45498 3.48807 3.6088 5.61495 3.6088C5.91594 3.6088 6.21693 3.64893 6.51792 3.7292L7.01957 1.7828C6.55805 1.6624 6.09654 1.6022 5.61495 1.6022C2.30395 1.6022 -0.344756 4.47152 0.0366125 7.86279C0.317536 10.4312 2.4044 12.5181 4.97284 12.799C8.36411 13.1803 11.2334 10.5316 11.2334 7.22068V6.6187C11.2334 6.39797 11.0528 6.21738 10.8321 6.21738L10.8323 6.21761Z" fill="#A0A1A9"/>
<path d="M8.36414 2.48534L5.93605 0.0572474C5.81565 -0.0631484 5.61499 0.0171155 5.61499 0.197709V5.05367C5.61499 5.23427 5.81565 5.31453 5.93605 5.19414L8.36414 2.76604C8.44441 2.66571 8.44441 2.54531 8.36414 2.48512V2.48534Z" fill="#A0A1A9"/>
</svg>
