
<svg width="18" height="18" viewBox="0 0 18 18" fill="none" xmlns="http://www.w3.org/2000/svg">
<path fill-rule="evenodd" clip-rule="evenodd" d="M0 0.540468C0 0.241948 0.242724 0 0.542253 0H17.5176C17.8123 0 17.9935 0.234734 18.0001 0.528553V17.4594C18.0001 17.7579 17.7574 18 17.458 18H0.542383C0.242847 18 0.000130034 17.7579 0.000130034 17.4594L0 0.540468ZM2.71091 2.16216C2.4115 2.16216 2.16879 2.40412 2.16879 2.70263V15.2972C2.16879 15.5957 2.41151 15.8377 2.71091 15.8377H15.2893C15.5888 15.8377 15.8315 15.5957 15.8315 15.2972V2.69062C15.8249 2.39692 15.5113 2.1622 15.2166 2.1622L2.71091 2.16216Z" fill="#A0A1A9"/>
<path fill-rule="evenodd" clip-rule="evenodd" d="M10.747 4.41524C10.8325 4.49945 10.8329 4.63691 10.7481 4.72175L6.67897 8.78987C6.46237 9.00647 6.1087 9.00089 5.89907 8.77744L3.67984 6.41147C3.6002 6.3265 3.6021 6.19411 3.68415 6.11155L4.50413 5.2865C4.59227 5.19785 4.73709 5.20178 4.82028 5.29512L5.88895 6.49377C6.09616 6.72622 6.45694 6.73675 6.67761 6.51685L9.60827 3.59492C9.6926 3.51085 9.8293 3.51046 9.91402 3.59416L10.747 4.41524Z" fill="#A0A1A9"/>
<path fill-rule="evenodd" clip-rule="evenodd" d="M9.31603 9.28491C9.4497 9.15277 9.66555 9.15365 9.79807 9.28706L14.1642 13.6782C14.2967 13.8115 14.2958 14.0267 14.1622 14.1588L13.678 14.6374C13.5442 14.7696 13.3284 14.7686 13.1958 14.6353L8.8297 10.2441C8.69718 10.1107 8.69819 9.89566 8.83186 9.7635L9.31603 9.28491Z" fill="#A0A1A9"/>
<path fill-rule="evenodd" clip-rule="evenodd" d="M8.81267 14.1354C8.68015 14.002 8.68104 13.7869 8.8147 13.6548L13.2192 9.30161C13.3529 9.16947 13.5688 9.17035 13.7013 9.30376L14.1813 9.78641C14.3138 9.9197 14.3129 10.1349 14.1791 10.267L9.7747 14.6202C9.64103 14.7523 9.42518 14.7513 9.29266 14.618L8.81267 14.1354Z" fill="#A0A1A9"/>
</svg>
