<svg width="22" height="17" viewBox="0 0 22 17" fill="none" xmlns="http://www.w3.org/2000/svg">
<path d="M18.6526 1.41296C18.6465 1.40114 18.6363 1.39187 18.624 1.38682C17.1976 0.733629 15.6924 0.267849 14.1459 0.00114249C14.1319 -0.00146452 14.1174 0.000416204 14.1044 0.00651719C14.0915 0.0126182 14.0809 0.0226288 14.074 0.0351254C13.869 0.406431 13.683 0.787824 13.5165 1.17785C11.8495 0.925284 10.1539 0.925284 8.48694 1.17785C8.31938 0.786833 8.13034 0.405346 7.92066 0.0351254C7.91347 0.0229004 7.90275 0.0131203 7.88991 0.00705895C7.87707 0.000997594 7.8627 -0.0010641 7.84867 0.00114249C6.30207 0.26729 4.79673 0.733104 3.37053 1.38686C3.35833 1.39203 3.34802 1.40085 3.34105 1.41211C0.488935 5.66326 -0.292367 9.80988 0.0909135 13.9052C0.0919917 13.9152 0.0950813 13.9249 0.0999984 13.9337C0.104915 13.9426 0.11156 13.9503 0.119536 13.9565C1.7803 15.1838 3.63788 16.1207 5.61301 16.727C5.62692 16.7312 5.64177 16.731 5.65557 16.7265C5.66937 16.722 5.68145 16.7133 5.69019 16.7018C6.11441 16.1257 6.4903 15.5156 6.81403 14.8778C6.81848 14.8691 6.82102 14.8595 6.82148 14.8497C6.82195 14.8399 6.82033 14.8301 6.81672 14.8209C6.81312 14.8118 6.80762 14.8035 6.80059 14.7967C6.79355 14.7898 6.78514 14.7845 6.77591 14.7812C6.18316 14.5548 5.60931 14.2819 5.05975 13.9651C5.04977 13.9592 5.04138 13.951 5.03534 13.9412C5.02929 13.9313 5.02577 13.9201 5.02509 13.9086C5.0244 13.897 5.02658 13.8855 5.03142 13.875C5.03625 13.8645 5.04361 13.8553 5.05283 13.8484C5.16814 13.7621 5.28353 13.6724 5.39364 13.5818C5.40343 13.5738 5.41526 13.5686 5.42782 13.5669C5.44038 13.5653 5.45317 13.5671 5.46473 13.5723C9.06515 15.2123 12.9631 15.2123 16.5209 13.5723C16.5325 13.5668 16.5454 13.5647 16.5581 13.5662C16.5709 13.5678 16.5829 13.5729 16.5929 13.581C16.703 13.6716 16.8184 13.7621 16.9346 13.8484C16.9438 13.8553 16.9512 13.8644 16.9562 13.8748C16.9611 13.8853 16.9633 13.8968 16.9627 13.9083C16.9621 13.9199 16.9587 13.9311 16.9527 13.941C16.9468 13.9509 16.9384 13.9592 16.9285 13.9651C16.3802 14.2846 15.8058 14.5573 15.2115 14.7803C15.2023 14.7838 15.1939 14.7892 15.1869 14.7962C15.1799 14.8031 15.1745 14.8115 15.171 14.8207C15.1674 14.8299 15.1659 14.8398 15.1664 14.8496C15.167 14.8594 15.1696 14.8691 15.1741 14.8778C15.5033 15.5121 15.8786 16.1213 16.2971 16.7008C16.3056 16.7126 16.3176 16.7216 16.3314 16.7263C16.3453 16.7309 16.3603 16.7312 16.3743 16.7269C18.3529 16.1226 20.2138 15.1857 21.8766 13.9565C21.8847 13.9506 21.8914 13.9431 21.8964 13.9343C21.9013 13.9256 21.9043 13.916 21.9052 13.906C22.3641 9.17145 21.137 5.05881 18.6526 1.41296ZM7.35172 11.4116C6.26773 11.4116 5.37456 10.4187 5.37456 9.19935C5.37456 7.97999 6.25041 6.98706 7.35172 6.98706C8.46164 6.98706 9.34617 7.98862 9.32885 9.19927C9.32885 10.4187 8.45296 11.4116 7.35172 11.4116ZM14.6619 11.4116C13.5779 11.4116 12.6848 10.4187 12.6848 9.19935C12.6848 7.97999 13.5606 6.98706 14.6619 6.98706C15.7719 6.98706 16.6564 7.98862 16.639 9.19927C16.639 10.4187 15.7719 11.4116 14.6619 11.4116Z" fill="white"/>
</svg>
