
<svg width="13" height="12" viewBox="0 0 13 12" fill="none" xmlns="http://www.w3.org/2000/svg">
<path d="M8.05277 2.5487L7.65704 3.47684C7.6138 3.57818 7.62277 3.70587 7.67908 3.79435C7.7182 3.8553 7.77398 3.88841 7.83102 3.88841C7.85654 3.88841 7.88238 3.88177 7.90705 3.86795L10.9091 2.19747C10.9847 2.1554 11.0341 2.05533 11.0341 1.94377C11.0341 1.83263 10.9847 1.73256 10.9091 1.69007L7.90705 0.0201234C7.82691 -0.0238475 7.73581 0.00578267 7.67908 0.0939363C7.62267 0.182404 7.61359 0.3101 7.65704 0.411658L8.05277 1.33948L2.51572 1.33958C1.12857 1.33958 0 2.46818 0 3.85541V8.47061C0 8.80456 0.270779 9.07523 0.604616 9.07523C0.938561 9.07523 1.20923 8.80445 1.20923 8.47061V3.85514C1.20923 3.13464 1.79519 2.54857 2.51562 2.54857L8.05277 2.5487Z" fill="#A0A1A9"/>
<path d="M12.3951 2.19778C12.0612 2.19778 11.7905 2.46856 11.7905 2.8024V7.4176C11.7905 8.1381 11.2044 8.72417 10.4841 8.72417L4.94704 8.72428L5.34267 7.79613C5.38591 7.6948 5.37694 7.5671 5.32063 7.47863C5.28151 7.41768 5.22573 7.38457 5.16869 7.38457C5.14317 7.38457 5.11733 7.39121 5.09266 7.40503L2.09063 9.07551C2.01503 9.11758 1.96558 9.21765 1.96558 9.32921C1.96558 9.44035 2.01503 9.54042 2.09063 9.58291L5.09266 11.253C5.1728 11.2969 5.26391 11.2673 5.32063 11.1791C5.37705 11.0907 5.38612 10.963 5.34267 10.8614L4.94672 9.93361H10.484C11.8712 9.93361 12.9998 8.80501 12.9998 7.41778V2.80231C12.9998 2.46836 12.729 2.19759 12.3952 2.19759L12.3951 2.19778Z" fill="#A0A1A9"/>
</svg>
