
<svg width="18" height="15" viewBox="0 0 18 15" fill="none" xmlns="http://www.w3.org/2000/svg">
<path fill-rule="evenodd" clip-rule="evenodd" d="M13.6784 10.5105C15.7737 10.2637 16.7056 7.81845 15.9782 5.74099C14.9666 2.85263 10.7764 2.64477 9.91198 7.36284C8.60872 14.4743 1.99174 13.8176 0.380728 9.31953C-0.831265 5.93574 0.948966 2.12655 4.32162 1.8212L4.32204 0.663553C4.32134 0.160585 4.81149 -0.167762 5.20856 0.0899943L8.51652 2.23357C8.90978 2.48063 8.92286 3.12523 8.5234 3.38508L5.24423 5.50958C4.85769 5.8036 4.32065 5.49697 4.32065 4.95917L4.32108 3.82734C2.25753 4.12184 1.27652 6.48409 2.0267 8.57909C3.05182 11.4406 7.30291 11.7279 8.17527 6.96495C9.4736 -0.117502 16.0427 0.480703 17.631 5.01568C18.809 8.38164 17.0795 12.2619 13.679 12.5136L13.6793 13.6632C13.6793 14.2008 13.1425 14.5073 12.7557 14.2133L9.47654 12.0888C9.0771 11.8291 9.09015 11.1844 9.4837 10.9373L12.7917 8.79405C13.1887 8.53612 13.6789 8.8648 13.6782 9.36745L13.6785 10.5105L13.6784 10.5105Z" fill="#A0A1A9"/>
</svg>
