<svg width="25" height="20" viewBox="0 0 25 20" fill="none" xmlns="http://www.w3.org/2000/svg">
<path d="M25 2.36736C24.0798 2.76965 23.0914 3.04037 22.054 3.16248C23.1135 2.53774 23.926 1.54858 24.3087 0.369161C23.3183 0.947513 22.2203 1.36779 21.0511 1.59496C20.1156 0.613375 18.7829 0 17.308 0C14.4754 0 12.1793 2.26135 12.1793 5.04899C12.1793 5.44465 12.2255 5.83085 12.312 6.19906C8.04969 5.98892 4.27099 3.97842 1.74032 0.922902C1.29995 1.6688 1.04708 2.53585 1.04708 3.46254C1.04708 5.21369 1.95185 6.75943 3.32776 7.66435C2.4874 7.63784 1.69609 7.41067 1.00477 7.03299C1.00477 7.05476 1.00477 7.07464 1.00477 7.09641C1.00477 9.54328 2.77201 11.5841 5.11903 12.0469C4.68924 12.1624 4.23541 12.224 3.76716 12.224C3.43737 12.224 3.11526 12.1918 2.80278 12.134C3.45564 14.1398 5.34979 15.6004 7.59394 15.6411C5.8392 16.9956 3.62775 17.803 1.22399 17.803C0.810546 17.803 0.401908 17.7794 0 17.732C2.27011 19.1642 4.96519 20 7.8622 20C17.2964 20 22.4539 12.3063 22.4539 5.63396C22.4539 5.41531 22.4491 5.1976 22.4395 4.98083C23.4424 4.26807 24.3125 3.37924 25 2.36736Z" fill="#2081E2"/>
</svg>
