<svg width="43" height="43" viewBox="0 0 43 43" fill="none" xmlns="http://www.w3.org/2000/svg">
<rect width="43" height="43" rx="5" fill="#A0A1A9"/>
<path d="M31 15.7755C30.3007 16.0772 29.5495 16.2803 28.761 16.3719C29.5663 15.9033 30.1838 15.1614 30.4746 14.2769C29.7219 14.7106 28.8874 15.0258 27.9988 15.1962C27.2878 14.46 26.275 14 25.1541 14C23.0013 14 21.2563 15.696 21.2563 17.7867C21.2563 18.0835 21.2914 18.3731 21.3571 18.6493C18.1178 18.4917 15.246 16.9838 13.3226 14.6922C12.988 15.2516 12.7958 15.9019 12.7958 16.5969C12.7958 17.9103 13.4834 19.0696 14.5291 19.7483C13.8904 19.7284 13.289 19.558 12.7636 19.2747C12.7636 19.2911 12.7636 19.306 12.7636 19.3223C12.7636 21.1575 14.1067 22.6881 15.8905 23.0352C15.5638 23.1218 15.2189 23.168 14.863 23.168C14.6124 23.168 14.3676 23.1438 14.1301 23.1005C14.6263 24.6049 16.0658 25.7003 17.7714 25.7308C16.4378 26.7467 14.7571 27.3523 12.9302 27.3523C12.616 27.3523 12.3054 27.3345 12 27.299C13.7253 28.3731 15.7735 29 17.9753 29C25.1453 29 29.065 23.2297 29.065 18.2255C29.065 18.0615 29.0613 17.8982 29.054 17.7356C29.8162 17.2011 30.4775 16.5344 31 15.7755Z" fill="white"/>
</svg>
