
<svg width="14" height="14" viewBox="0 0 14 14" fill="none" xmlns="http://www.w3.org/2000/svg">
<path d="M7 0C5.1435 0 3.36311 0.737492 2.05025 2.05025C0.73752 3.36309 0 5.1437 0 7C0 8.8563 0.737492 10.6369 2.05025 11.9498C3.36308 13.2625 5.1437 14 7 14C8.8563 14 10.6369 13.2625 11.9498 11.9498C13.2625 10.6369 14 8.8563 14 7C13.998 5.14407 13.2599 3.36483 11.9475 2.05253C10.6352 0.74012 8.85579 0.00205713 7.00006 5.71119e-05L7 0ZM9.90717 8.72921C9.96822 8.15487 9.99924 7.57775 10.0001 7.00017C9.99924 6.4226 9.96822 5.84548 9.90717 5.27113C11.8687 5.66465 13 6.41311 13 7.00017C13 7.58723 11.8686 8.33567 9.90717 8.72921ZM7 13.0001C6.41294 13.0001 5.6645 11.8686 5.27096 9.90722C5.84531 9.96827 6.42242 9.9993 7 10.0002C7.57758 9.9993 8.15469 9.96827 8.72904 9.90722C8.33552 11.8687 7.58706 13.0001 7 13.0001ZM7 9.00007C6.36797 9.00097 5.73628 8.9648 5.10847 8.89159C4.96383 7.63467 4.96383 6.36546 5.10847 5.10842C6.3654 4.96377 7.63461 4.96377 8.89165 5.10842C8.96486 5.73622 9.00102 6.36791 9.00013 6.99995C9.00102 7.63198 8.96486 8.26367 8.89165 8.89148C8.26384 8.96469 7.63215 9.00085 7.00011 8.99996L7 9.00007ZM0.999951 7.00006C0.999951 6.413 2.13145 5.66456 4.09283 5.27101C3.96884 6.42037 3.96884 7.57975 4.09283 8.72904C2.13133 8.33553 0.999951 7.58706 0.999951 7V7.00006ZM7 1.00001C7.58706 1.00001 8.3355 2.1315 8.72904 4.09289C7.57969 3.9689 6.42031 3.9689 5.27101 4.09289C5.66453 2.13139 6.413 1.00001 7.00006 1.00001H7ZM12.7326 5.22861C11.8082 4.72727 10.8029 4.39189 9.76259 4.23763C9.60835 3.19734 9.27296 2.19208 8.77162 1.26761C9.70319 1.55778 10.5503 2.06985 11.2403 2.75991C11.9303 3.44986 12.4424 4.29698 12.7326 5.22856L12.7326 5.22861ZM5.22856 1.26772C4.72721 2.19216 4.39184 3.19743 4.23758 4.23775C3.19728 4.39199 2.19202 4.72738 1.26755 5.22873C1.55773 4.29715 2.06979 3.45003 2.75985 2.76008C3.4498 2.07002 4.29692 1.55796 5.2285 1.26778L5.22856 1.26772ZM1.26767 8.77179C2.1921 9.27313 3.19737 9.60851 4.23769 9.76277C4.39193 10.8031 4.72732 11.8083 5.22867 12.7328C4.29709 12.4426 3.44997 11.9306 2.76002 11.2405C2.06996 10.5505 1.5579 9.70342 1.26772 8.77184L1.26767 8.77179ZM8.77173 12.733V12.7329C9.27308 11.8084 9.60845 10.8031 9.76271 9.76283C10.803 9.60858 11.8083 9.27319 12.7327 8.77185C12.4426 9.70343 11.9305 10.5505 11.2404 11.2405C10.5505 11.9306 9.70337 12.4426 8.77179 12.7328L8.77173 12.733Z" fill="#7A65FB"/>
</svg>
