<svg width="16" height="16" viewBox="0 0 16 16" fill="none" xmlns="http://www.w3.org/2000/svg">
<path d="M9.19347 7.52839L14.7119 2.00994C15.1717 1.55013 15.1717 0.804789 14.7119 0.344861C14.2521 -0.114954 13.5068 -0.114954 13.0468 0.344861L7.52839 5.86331L2.00994 0.344861C1.55012 -0.114954 0.804788 -0.114954 0.344861 0.344861C-0.114954 0.804675 -0.114954 1.55001 0.344861 2.00994L5.86331 7.52839L0.344861 13.0468C-0.114954 13.5067 -0.114954 14.252 0.344861 14.7119C0.566862 14.9339 0.868162 15.0608 1.16949 15.0608C1.47081 15.0608 1.7721 14.9497 1.99411 14.7119L7.52842 9.19347L13.0469 14.7119C13.2689 14.9339 13.5702 15.0608 13.8715 15.0608C14.1728 15.0608 14.4741 14.9497 14.6961 14.7119C15.1559 14.2521 15.1559 13.5068 14.6961 13.0468L9.19347 7.52839Z" fill="white"/>
</svg>
