<svg width="24" height="24" viewBox="0 0 24 24" fill="none" xmlns="http://www.w3.org/2000/svg">
<g filter="url(#filter0_d_15_1289)">
<path d="M12 0C11.4186 0 10.9474 0.471241 10.9474 1.05263V6.94737H5.05263C4.47124 6.94737 4 7.41861 4 8C4 8.58139 4.47124 9.05263 5.05263 9.05263H10.9474V14.9474C10.9474 15.5288 11.4186 16 12 16C12.5814 16 13.0526 15.5288 13.0526 14.9474V9.05263H18.9474C19.5288 9.05263 20 8.58139 20 8C20 7.41861 19.5288 6.94737 18.9474 6.94737H13.0526V1.05263C13.0526 0.471241 12.5814 0 12 0Z" fill="#A0A1A9"/>
</g>
<defs>
<filter id="filter0_d_15_1289" x="0" y="0" width="24" height="24" filterUnits="userSpaceOnUse" color-interpolation-filters="sRGB">
<feFlood flood-opacity="0" result="BackgroundImageFix"/>
<feColorMatrix in="SourceAlpha" type="matrix" values="0 0 0 0 0 0 0 0 0 0 0 0 0 0 0 0 0 0 127 0" result="hardAlpha"/>
<feOffset dy="4"/>
<feGaussianBlur stdDeviation="2"/>
<feComposite in2="hardAlpha" operator="out"/>
<feColorMatrix type="matrix" values="0 0 0 0 0 0 0 0 0 0 0 0 0 0 0 0 0 0 0.25 0"/>
<feBlend mode="normal" in2="BackgroundImageFix" result="effect1_dropShadow_15_1289"/>
<feBlend mode="normal" in="SourceGraphic" in2="effect1_dropShadow_15_1289" result="shape"/>
</filter>
</defs>
</svg>
