
<svg width="19" height="13" viewBox="0 0 19 13" fill="none" xmlns="http://www.w3.org/2000/svg">
<path d="M1.3855 0C0.640022 0 0 0.594548 0 1.34427V10.7867C0 11.5363 0.640022 12.1391 1.3855 12.1391H13.1945C13.3382 12.138 13.4752 12.0784 13.5738 11.9742L18.8516 6.43254C19.0495 6.22804 19.0495 5.90335 18.8516 5.69865L13.5738 0.157013C13.4737 0.0557745 13.3369 -0.000739957 13.1945 0.000367428L1.3855 0ZM1.3855 1.05564H12.972L17.7465 6.06951L12.9636 11.0834H1.3855C1.18413 11.0834 1.05564 10.9466 1.05564 10.7866V1.34418C1.05564 1.18404 1.18431 1.05555 1.3855 1.05555V1.05564ZM4.95614 2.89452C4.75071 2.91458 4.57584 3.05245 4.50847 3.24757C4.44091 3.44269 4.49356 3.65916 4.64285 3.80164L6.91063 6.06942L4.64285 8.32891C4.54013 8.42665 4.48104 8.56158 4.47884 8.70331C4.47663 8.84505 4.53148 8.98182 4.63125 9.08251C4.73102 9.18338 4.86705 9.23989 5.00878 9.23934C5.15052 9.2386 5.28618 9.18098 5.38503 9.07938L7.65281 6.81159L9.92059 9.07938C10.0194 9.18098 10.1549 9.2386 10.2967 9.23934C10.4386 9.23989 10.5746 9.18338 10.6742 9.08251C10.774 8.98182 10.829 8.84505 10.8268 8.70331C10.8246 8.56158 10.7655 8.42665 10.6628 8.32891L8.39499 6.06942L10.6628 3.80164C10.8307 3.64389 10.8769 3.39539 10.7769 3.18777C10.677 2.98015 10.4537 2.86141 10.2256 2.89454C10.1095 2.91129 10.002 2.96651 9.9206 3.05118L7.65282 5.31897L5.38504 3.05118C5.27312 2.93669 5.11555 2.87908 4.95615 2.89454L4.95614 2.89452Z" fill="#A0A1A9"/>
</svg>
