<svg width="96" height="16" viewBox="0 0 96 16" fill="none" xmlns="http://www.w3.org/2000/svg">
<path d="M91.2632 7.15784H87.579C87.1603 7.15831 86.759 7.32475 86.463 7.62076C86.167 7.91683 86.0005 8.31816 86 8.73682V12.421C86.0005 12.8396 86.167 13.241 86.463 13.537C86.759 13.833 87.1603 13.9995 87.579 14H91.2632C91.6818 13.9995 92.0831 13.833 92.3791 13.537C92.6752 13.241 92.8417 12.8396 92.8421 12.421V8.73682C92.8417 8.31816 92.6752 7.91685 92.3791 7.62076C92.0832 7.32476 91.6818 7.1583 91.2632 7.15784ZM91.7895 12.421C91.7894 12.5606 91.7338 12.6944 91.6352 12.793C91.5366 12.8917 91.4028 12.9472 91.2631 12.9474H87.579C87.4394 12.9472 87.3057 12.8917 87.207 12.793C87.1083 12.6944 87.0528 12.5606 87.0526 12.421V8.73686C87.0528 8.59725 87.1083 8.46346 87.207 8.3648C87.3056 8.26616 87.4394 8.2106 87.579 8.21052H91.2631C91.4028 8.2106 91.5365 8.26616 91.6352 8.3648C91.7338 8.46345 91.7894 8.59724 91.7895 8.73686V12.421Z" fill="#A0A1A9"/>
<path d="M94.4209 4H90.7367C90.318 4.00047 89.9167 4.16699 89.6207 4.463C89.3246 4.759 89.1582 5.1604 89.1577 5.57898V6.1053C89.1577 6.29333 89.258 6.46707 89.4208 6.56109C89.5837 6.6551 89.7843 6.6551 89.9472 6.56109C90.11 6.46708 90.2104 6.29334 90.2104 6.1053V5.57898C90.2105 5.43946 90.266 5.30567 90.3647 5.20701C90.4633 5.10829 90.5971 5.05281 90.7367 5.05265H94.4209C94.5604 5.05281 94.6942 5.10829 94.7929 5.20701C94.8916 5.30565 94.9471 5.43944 94.9472 5.57898V9.26316C94.9471 9.40277 94.8916 9.53656 94.7929 9.63522C94.6942 9.73386 94.5604 9.78942 94.4209 9.7895H93.8946C93.7065 9.7895 93.5328 9.88987 93.4388 10.0527C93.3448 10.2155 93.3448 10.4162 93.4388 10.579C93.5328 10.7419 93.7065 10.8422 93.8946 10.8422H94.4209C94.8395 10.8417 95.2409 10.6752 95.5369 10.3792C95.8329 10.0832 95.9994 9.68184 95.9999 9.26318V5.579C95.9994 5.16041 95.8329 4.75903 95.5369 4.46301C95.2409 4.167 94.8395 4.0005 94.4209 4.00001L94.4209 4Z" fill="#A0A1A9"/>
<path d="M5.161 13.195C7.28 13.195 8.736 11.96 9.23 10.231L8.099 9.815C7.722 11.076 6.734 12.025 5.161 12.025C3.484 12.025 1.885 10.79 1.885 8.385C1.885 5.98 3.484 4.758 5.161 4.758C6.669 4.758 7.683 5.538 8.034 6.929L9.217 6.513C8.749 4.732 7.267 3.588 5.161 3.588C2.873 3.588 0.585 5.304 0.585 8.385C0.585 11.466 2.782 13.195 5.161 13.195ZM13.2141 12.103C12.1741 12.103 11.2641 11.323 11.2641 9.867C11.2641 8.424 12.1741 7.644 13.2141 7.644C14.2541 7.644 15.1641 8.424 15.1641 9.867C15.1641 11.323 14.2541 12.103 13.2141 12.103ZM13.2141 6.552C11.3421 6.552 10.0161 7.969 10.0161 9.867C10.0161 11.778 11.3421 13.195 13.2141 13.195C15.0861 13.195 16.4121 11.778 16.4121 9.867C16.4121 7.969 15.0861 6.552 13.2141 6.552ZM19.1845 15.47V12.155C19.5225 12.714 20.2505 13.169 21.2125 13.169C23.0455 13.169 24.1245 11.726 24.1245 9.867C24.1245 8.047 23.1235 6.604 21.2515 6.604C20.2375 6.604 19.4965 7.098 19.1585 7.722V6.747H17.9755V15.47H19.1845ZM22.8765 9.867C22.8765 11.154 22.1615 12.077 21.0305 12.077C19.9125 12.077 19.1715 11.154 19.1715 9.867C19.1715 8.619 19.9125 7.683 21.0305 7.683C22.1745 7.683 22.8765 8.619 22.8765 9.867ZM26.9877 15.613L31.0567 6.747H29.7437L27.8717 11.063L25.9217 6.747H24.5177L27.2087 12.311L25.6487 15.613H26.9877ZM35.0924 11.323C35.0924 12.311 35.9114 13.195 37.1854 13.195C38.3034 13.195 38.9274 12.597 39.2004 12.155C39.2004 12.61 39.2394 12.844 39.2654 13H40.4614C40.4354 12.844 40.3834 12.519 40.3834 11.973V8.84C40.3834 7.618 39.6554 6.552 37.7834 6.552C36.4314 6.552 35.3524 7.384 35.2224 8.58L36.3924 8.853C36.4704 8.125 36.9514 7.592 37.8094 7.592C38.7584 7.592 39.1614 8.099 39.1614 8.71C39.1614 8.931 39.0574 9.126 38.6804 9.178L36.9904 9.425C35.9114 9.581 35.0924 10.205 35.0924 11.323ZM37.3544 12.168C36.7304 12.168 36.3404 11.726 36.3404 11.258C36.3404 10.699 36.7304 10.4 37.2504 10.322L39.1614 10.036V10.322C39.1614 11.687 38.3554 12.168 37.3544 12.168ZM43.0151 9.854C43.0151 8.567 43.7431 7.657 44.8611 7.657C45.9791 7.657 46.6551 8.541 46.6551 9.828C46.6551 11.115 45.9661 12.09 44.8481 12.09C43.6781 12.09 43.0151 11.141 43.0151 9.854ZM46.6681 12.155C46.6681 12.532 46.7071 12.857 46.7331 13H47.9161C47.9031 12.896 47.8511 12.441 47.8511 11.843V3.588H46.6421V7.631C46.4341 7.124 45.8361 6.578 44.7311 6.578C42.9631 6.578 41.7671 8.086 41.7671 9.854C41.7671 11.713 42.8981 13.169 44.7311 13.169C45.7061 13.169 46.3691 12.649 46.6681 12.051V12.155ZM50.6576 9.854C50.6576 8.567 51.3856 7.657 52.5036 7.657C53.6216 7.657 54.2976 8.541 54.2976 9.828C54.2976 11.115 53.6086 12.09 52.4906 12.09C51.3206 12.09 50.6576 11.141 50.6576 9.854ZM54.3106 12.155C54.3106 12.532 54.3496 12.857 54.3756 13H55.5586C55.5456 12.896 55.4936 12.441 55.4936 11.843V3.588H54.2846V7.631C54.0766 7.124 53.4786 6.578 52.3736 6.578C50.6056 6.578 49.4096 8.086 49.4096 9.854C49.4096 11.713 50.5406 13.169 52.3736 13.169C53.3486 13.169 54.0116 12.649 54.3106 12.051V12.155ZM61.0432 6.682C60.9782 6.669 60.8092 6.643 60.6402 6.643C60.0032 6.643 59.2232 6.877 58.7682 7.839V6.747H57.5722V13H58.7942V9.867C58.7942 8.489 59.4832 7.943 60.5102 7.943C60.6792 7.943 60.8612 7.956 61.0432 7.982V6.682ZM63.0752 9.23C63.1272 8.424 63.7512 7.631 64.7782 7.631C65.8832 7.631 66.4682 8.333 66.4942 9.23H63.0752ZM66.6762 10.855C66.4422 11.557 65.9352 12.116 64.9212 12.116C63.8682 12.116 63.0622 11.336 63.0362 10.218H67.7422C67.7552 10.14 67.7682 9.984 67.7682 9.828C67.7682 7.878 66.6892 6.552 64.7652 6.552C63.1922 6.552 61.7752 7.891 61.7752 9.854C61.7752 11.973 63.2442 13.195 64.9212 13.195C66.3772 13.195 67.3782 12.324 67.7292 11.219L66.6762 10.855ZM68.7431 11.375C68.8471 12.09 69.5751 13.195 71.2911 13.195C72.8381 13.195 73.5791 12.142 73.5791 11.258C73.5791 10.335 72.9811 9.646 71.8501 9.399L70.8361 9.178C70.3551 9.074 70.1211 8.801 70.1211 8.424C70.1211 7.995 70.5371 7.592 71.1611 7.592C72.1491 7.592 72.4091 8.307 72.4611 8.632L73.5401 8.229C73.4101 7.67 72.8771 6.552 71.1611 6.552C69.9391 6.552 68.9381 7.462 68.9381 8.528C68.9381 9.412 69.5231 10.075 70.4981 10.283L71.5641 10.517C72.0841 10.634 72.3701 10.933 72.3701 11.323C72.3701 11.765 71.9931 12.155 71.3041 12.155C70.4201 12.155 69.9261 11.635 69.8481 10.985L68.7431 11.375ZM74.621 11.375C74.725 12.09 75.453 13.195 77.169 13.195C78.716 13.195 79.457 12.142 79.457 11.258C79.457 10.335 78.859 9.646 77.728 9.399L76.714 9.178C76.233 9.074 75.999 8.801 75.999 8.424C75.999 7.995 76.415 7.592 77.039 7.592C78.027 7.592 78.287 8.307 78.339 8.632L79.418 8.229C79.288 7.67 78.755 6.552 77.039 6.552C75.817 6.552 74.816 7.462 74.816 8.528C74.816 9.412 75.401 10.075 76.376 10.283L77.442 10.517C77.962 10.634 78.248 10.933 78.248 11.323C78.248 11.765 77.871 12.155 77.182 12.155C76.298 12.155 75.804 11.635 75.726 10.985L74.621 11.375Z" fill="#1D1C32" fill-opacity="0.35"/>
</svg>
