<svg width="15" height="11" viewBox="0 0 15 11" fill="none" xmlns="http://www.w3.org/2000/svg">
<path d="M12.6981 0.979563C11.7421 0.564283 10.7169 0.258323 9.64494 0.0830868C9.62541 0.0797048 9.60592 0.0881566 9.59586 0.105061C9.46401 0.327063 9.31796 0.616683 9.21568 0.844323C8.06275 0.680923 6.91574 0.680923 5.78645 0.844323C5.68415 0.611623 5.5328 0.327063 5.40036 0.105061C5.3903 0.0887206 5.3708 0.0802688 5.35128 0.0830868C4.27994 0.257763 3.25473 0.563723 2.29808 0.979563C2.2898 0.982943 2.2827 0.988583 2.27799 0.995903C0.33337 3.74618 -0.199344 6.42887 0.0619876 9.07829C0.06317 9.09125 0.0708562 9.10365 0.0814988 9.11153C1.36451 10.0035 2.60732 10.545 3.82705 10.9039C3.84657 10.9095 3.86725 10.9028 3.87968 10.8876C4.1682 10.5146 4.4254 10.1213 4.64592 9.70767C4.65894 9.68345 4.64651 9.65471 4.61992 9.64513C4.21196 9.49863 3.8235 9.32001 3.44983 9.11717C3.42027 9.10083 3.41791 9.06081 3.4451 9.04165C3.52373 8.98587 3.60239 8.92783 3.67747 8.86923C3.69106 8.85853 3.70999 8.85627 3.72596 8.86303C6.1808 9.92405 8.83846 9.92405 11.2643 8.86303C11.2803 8.85571 11.2992 8.85797 11.3134 8.86867C11.3885 8.92727 11.4672 8.98587 11.5464 9.04165C11.5736 9.06081 11.5718 9.10083 11.5422 9.11717C11.1686 9.32395 10.7801 9.49863 10.3716 9.64457C10.345 9.65415 10.3331 9.68345 10.3462 9.70767C10.5714 10.1207 10.8286 10.514 11.1118 10.887C11.1236 10.9028 11.1449 10.9095 11.1644 10.9039C12.3901 10.545 13.6329 10.0035 14.9159 9.11153C14.9271 9.10365 14.9342 9.09181 14.9354 9.07885C15.2482 6.01583 14.4116 3.35514 12.7176 0.996463C12.7135 0.988583 12.7064 0.982943 12.6981 0.979563ZM5.01251 7.46507C4.27344 7.46507 3.66446 6.82273 3.66446 6.03386C3.66446 5.245 4.26163 4.60266 5.01251 4.60266C5.7693 4.60266 6.37238 5.25064 6.36055 6.03386C6.36055 6.82273 5.76338 7.46507 5.01251 7.46507ZM9.99672 7.46507C9.25766 7.46507 8.64868 6.82273 8.64868 6.03386C8.64868 5.245 9.24583 4.60266 9.99672 4.60266C10.7535 4.60266 11.3566 5.25064 11.3448 6.03386C11.3448 6.82273 10.7535 7.46507 9.99672 7.46507Z" fill="#A0A1A9"/>
</svg>
