<svg width="7" height="5" viewBox="0 0 7 5" fill="none" xmlns="http://www.w3.org/2000/svg">
<path d="M3.43716 4.03654C3.2995 4.02231 3.16932 3.96267 3.06455 3.86594L0.250954 1.27927C0.109365 1.15757 0.0199287 0.979438 0.00292266 0.785694C-0.0139931 0.59193 0.0430162 0.399181 0.161053 0.25132C0.278997 0.103467 0.447868 0.0132518 0.62891 0.00132179C0.81003 -0.0106063 0.987883 0.056756 1.12189 0.188068L3.5 2.37511L5.87811 0.188068C6.01213 0.0568535 6.18998 -0.0105076 6.37109 0.00142241C6.55212 0.0132508 6.72099 0.103467 6.83895 0.25132C6.95698 0.399174 7.01399 0.592027 6.99708 0.785796C6.98007 0.979561 6.89063 1.15758 6.74904 1.27927L3.93545 3.86594C3.79778 3.99294 3.61796 4.05449 3.43723 4.03664L3.43716 4.03654Z" fill="black"/>
</svg>
