<svg width="43" height="43" viewBox="0 0 43 43" fill="none" xmlns="http://www.w3.org/2000/svg">
<rect width="43" height="43" rx="5" fill="#F5F4F6"/>
<path d="M29.7745 13.9849H20.5281C20.3658 13.4157 20.0232 12.9146 19.5518 12.5569C19.0806 12.1989 18.5059 12.0035 17.9139 12C17.3253 12.0049 16.7541 12.2011 16.2869 12.5592C15.8197 12.9174 15.4817 13.4178 15.324 13.9849H13.7264C13.4671 13.9849 13.2273 14.1234 13.0976 14.3479C12.9678 14.5727 12.9678 14.8494 13.0976 15.0741C13.2273 15.2989 13.4671 15.4371 13.7264 15.4371H15.324C15.4817 16.0044 15.8197 16.5049 16.2869 16.8628C16.7541 17.2209 17.3252 17.4173 17.9139 17.4221C18.5058 17.4185 19.0806 17.2232 19.5518 16.8654C20.0232 16.5074 20.3658 16.0063 20.5281 15.4371H29.7745C30.0338 15.4371 30.2736 15.2989 30.4032 15.0741C30.5331 14.8494 30.5331 14.5726 30.4032 14.3479C30.2736 14.1234 30.0338 13.9849 29.7745 13.9849ZM17.9139 15.9698L17.9137 15.9697C17.5799 15.9697 17.2598 15.8371 17.0238 15.6011C16.7877 15.365 16.6552 15.0449 16.6552 14.7111C16.6552 14.3771 16.7877 14.057 17.0238 13.821C17.2598 13.5849 17.5799 13.4524 17.9137 13.4524C18.2477 13.4524 18.5678 13.5849 18.8039 13.821C19.0399 14.057 19.1725 14.3771 19.1725 14.7111C19.1725 15.0449 19.0399 15.365 18.8039 15.6011C18.5678 15.8371 18.2477 15.9697 17.9137 15.9697L17.9139 15.9698Z" fill="#A0A1A9"/>
<path d="M29.7745 19.7942H28.1043C27.9466 19.227 27.6085 18.7266 27.1414 18.3685C26.6742 18.0104 26.103 17.8142 25.5144 17.8094C24.9224 17.8128 24.3477 18.0081 23.8764 18.3661C23.405 18.724 23.0624 19.225 22.9002 19.7942H13.7264C13.4671 19.7942 13.2273 19.9326 13.0976 20.1573C12.9678 20.3819 12.9678 20.6588 13.0976 20.8834C13.2273 21.1081 13.4671 21.2465 13.7264 21.2465H22.9002C23.0624 21.8157 23.405 22.3167 23.8764 22.6746C24.3477 23.0326 24.9224 23.2279 25.5144 23.2313C26.103 23.2266 26.6742 23.0304 27.1414 22.6722C27.6086 22.3141 27.9466 21.8137 28.1043 21.2465H29.7745C30.0338 21.2465 30.2736 21.1081 30.4032 20.8834C30.5331 20.6588 30.5331 20.3819 30.4032 20.1573C30.2736 19.9326 30.0338 19.7942 29.7745 19.7942ZM25.5144 21.7791C25.1792 21.7855 24.8552 21.658 24.6145 21.4248C24.3737 21.1917 24.2359 20.8721 24.2315 20.5367C24.2272 20.2016 24.3568 19.8786 24.5915 19.6393C24.8262 19.3999 25.1467 19.2642 25.4818 19.262C25.8172 19.2598 26.1393 19.3913 26.3772 19.6275C26.6149 19.8639 26.7488 20.1852 26.7488 20.5203C26.7488 20.8501 26.6197 21.1665 26.3887 21.4019C26.1579 21.6372 25.844 21.7727 25.5144 21.7791L25.5144 21.7791Z" fill="#A0A1A9"/>
<path d="M29.7744 25.6034H22.4886C22.2588 24.8608 21.7215 24.2525 21.0129 23.9329C20.3044 23.6135 19.4926 23.6135 18.7842 23.9329C18.0755 24.2525 17.5383 24.8609 17.3085 25.6034H13.7262C13.4668 25.6034 13.2271 25.7417 13.0974 25.9664C12.9675 26.1912 12.9675 26.4679 13.0974 26.6926C13.2271 26.9172 13.4668 27.0556 13.7262 27.0556H17.2843C17.4719 27.846 18.007 28.509 18.7398 28.8592C19.4725 29.2096 20.3245 29.2096 21.0573 28.8592C21.79 28.5091 22.3251 27.846 22.5127 27.0556H29.7743C30.0336 27.0556 30.2734 26.9172 30.403 26.6926C30.5329 26.4679 30.5329 26.1912 30.403 25.9664C30.2734 25.7417 30.0336 25.6034 29.7743 25.6034H29.7744ZM19.8986 27.6608C19.5648 27.6608 19.2447 27.5282 19.0086 27.2922C18.7726 27.0562 18.6399 26.736 18.6399 26.4021C18.6399 26.0682 18.7726 25.7481 19.0086 25.5121C19.2447 25.276 19.5648 25.1435 19.8986 25.1435C20.2324 25.1435 20.5526 25.276 20.7886 25.5121C21.0246 25.7481 21.1573 26.0682 21.1573 26.4021C21.1573 26.736 21.0246 27.0562 20.7886 27.2922C20.5526 27.5282 20.2324 27.6608 19.8986 27.6608Z" fill="#A0A1A9"/>
</svg>
