<svg width="57" height="65" viewBox="0 0 57 65" fill="none" xmlns="http://www.w3.org/2000/svg">
<path d="M32.5714 8.125C32.5714 5.88174 34.3908 4.0625 36.6429 4.0625H52.8141C53.4757 4.0625 54.01 4.17168 54.4808 4.371C54.8498 4.56777 55.4096 4.8585 55.804 5.24316C55.804 5.24951 55.804 5.25586 55.8167 5.26094C56.6056 6.05059 56.8855 7.08145 57 8.1123C57 8.11738 57 8.12119 57 8.125V24.375C57 26.6221 55.1806 28.4375 52.9286 28.4375C50.6766 28.4375 48.8571 26.6221 48.8571 24.375V17.9385L27.304 39.4316C25.7136 41.0186 23.1435 41.0186 21.5531 39.4316C19.9627 37.8447 19.9627 35.2803 21.5531 33.6934L43.0935 12.1875H36.6429C34.3908 12.1875 32.5714 10.3683 32.5714 8.125ZM0 16.25C0 11.7622 3.6452 8.125 8.14286 8.125H20.3571C22.6092 8.125 24.4286 9.94424 24.4286 12.1875C24.4286 14.4346 22.6092 16.25 20.3571 16.25H8.14286V52.8125H44.7857V40.625C44.7857 38.3779 46.6051 36.5625 48.8571 36.5625C51.1092 36.5625 52.9286 38.3779 52.9286 40.625V52.8125C52.9286 57.2939 49.277 60.9375 44.7857 60.9375H8.14286C3.6452 60.9375 0 57.2939 0 52.8125V16.25Z" fill="white"/>
</svg>
