
<svg width="43" height="43" viewBox="0 0 43 43" fill="none" xmlns="http://www.w3.org/2000/svg">
<rect width="43" height="43" rx="5" fill="#7A65FB"/>
<path d="M15 28.2148C15 28.4231 15.0827 28.6227 15.2299 28.7701C15.3773 28.9173 15.5769 29 15.7852 29H23.8087C24.0169 29 24.2167 28.9173 24.364 28.7701C24.5113 28.6227 24.594 28.4231 24.594 28.2148V25.4506C24.594 25.17 24.4443 24.9108 24.2013 24.7706C23.9583 24.6302 23.659 24.6302 23.4161 24.7706C23.1731 24.9108 23.0235 25.1701 23.0235 25.4506V27.4294H16.5706V14.5706H23.0235V16.5494C23.0235 16.83 23.1731 17.0892 23.4161 17.2294C23.659 17.3698 23.9584 17.3698 24.2013 17.2294C24.4443 17.0892 24.594 16.8299 24.594 16.5494V13.7852C24.594 13.5769 24.5113 13.3773 24.364 13.2299C24.2167 13.0827 24.0169 13 23.8087 13H15.7852C15.5769 13 15.3773 13.0827 15.2299 13.2299C15.0827 13.3773 15 13.5769 15 13.7852V28.2148Z" fill="white"/>
<path d="M29.0366 20.4624L26.3313 17.5883C26.1392 17.3838 25.8525 17.2974 25.5794 17.3616C25.3062 17.4258 25.0881 17.6309 25.0071 17.8995C24.9262 18.1682 24.9947 18.4596 25.1868 18.6641L26.6396 20.2151H19.6426C19.3622 20.2151 19.1029 20.3647 18.9626 20.6077C18.8224 20.8506 18.8224 21.15 18.9626 21.3929C19.103 21.6358 19.3622 21.7855 19.6426 21.7855H26.6396L25.1868 23.3364C24.9947 23.5409 24.9262 23.8323 25.0071 24.101C25.0881 24.3697 25.3062 24.5747 25.5794 24.6389C25.8525 24.7031 26.1392 24.6167 26.3313 24.4123L29.0366 21.5382C29.1735 21.3926 29.2498 21.2002 29.2498 21.0003C29.2498 20.8003 29.1735 20.608 29.0366 20.4624V20.4624Z" fill="white"/>
</svg>
