
<svg width="1013" height="1295" viewBox="0 0 1013 1295" fill="none" xmlns="http://www.w3.org/2000/svg">
<path d="M0 1020H216L204 927L170 844.5L107.5 791.5L0 754.5V1020Z" fill="#7A65FB"/>
<path d="M540.012 808.038C540.012 986.954 394.94 1132.01 216.009 1132.01L0 1132L0.000244141 1294H387.339C555.826 1249.91 650.244 1101.28 676.177 1031.1C690.321 979.952 702.174 914.631 708.943 836.155C729.49 874.309 814.724 913.221 852.569 767.854L852.57 767.85C853.09 765.118 853.593 762.382 854.079 759.639C860.609 722.764 864.016 684.81 864.016 646.058C864.016 576.408 852.366 509.652 831.957 446.838C781.32 486.917 717.474 511.063 648.021 511.063C609.881 511.063 573.518 503.595 540.012 490.453V808.038Z" fill="#7A65FB"/>
<path fill-rule="evenodd" clip-rule="evenodd" d="M649.943 428.112C531.713 428.112 435.869 332.276 435.869 214.056C435.869 95.8362 531.713 0 649.943 0C657.267 0 664.505 0.367762 671.639 1.08583C690.095 2.94333 707.86 7.14492 724.63 13.3884C725.849 13.8421 727.062 14.3065 728.271 14.7817C705.544 26.4842 690 50.1769 690 77.5C690 116.436 721.564 148 760.5 148C793.033 148 820.418 125.965 828.546 96.0054C850.962 129.846 864.016 170.426 864.016 214.056C864.016 242.167 858.597 269.012 848.747 293.604C817.17 372.434 740.059 428.112 649.943 428.112Z" fill="#7A65FB"/>
<path fill-rule="evenodd" clip-rule="evenodd" d="M828.546 96.0054C850.962 129.846 864.016 170.426 864.016 214.056C864.016 242.167 858.597 269.012 848.747 293.604C870.712 259.857 934.314 187.444 1013 167.774C999.207 141.604 944.63 89.8171 826.548 45.2386C826.365 45.1697 826.183 45.1008 826 45.032L826.548 45.2386C828.303 46.5206 831 54.1129 831 77.5C831 83.9038 830.146 90.1081 828.546 96.0054ZM728.271 14.7817C728.467 14.6806 728.664 14.5805 728.861 14.4812C727.457 14.1156 726.047 13.7513 724.63 13.3884C725.849 13.8421 727.062 14.3065 728.271 14.7817Z" fill="#7A65FB"/>
<path fill-rule="evenodd" clip-rule="evenodd" d="M432.051 417.281C381.946 364.082 351.05 292.695 351.05 214.061L351.041 214.056C351.041 151.841 370.331 94.0458 403.249 46.2708C169.995 141.575 4.5761 368.623 0.13059 635.02L0 635V754.5L107.5 791.5L170 844.5L204 927L216 1020C261.593 1020 306.694 1003.3 324.042 994.728V995.004C388.533 957.614 432.051 887.794 432.051 808.021V417.281Z" fill="#7A65FB"/>
</svg>
