<svg width="17" height="15" viewBox="0 0 17 15" fill="none" xmlns="http://www.w3.org/2000/svg">
<path d="M1.02713 8.56756L1.08118 8.48648L4.5947 2.99999C4.64875 2.91891 4.75686 2.91892 4.81091 3.02702C5.40551 4.35135 5.892 5.97297 5.67578 7C5.56767 7.43243 5.2974 8 4.97308 8.51351C4.94605 8.59459 4.892 8.67567 4.83794 8.72972C4.81091 8.75675 4.78389 8.78378 4.72983 8.78378H1.10821C1.02713 8.75675 0.973075 8.64864 1.02713 8.56756Z" fill="#A0A1A9"/>
<path d="M16.6757 9.59459V10.4595C16.6757 10.5135 16.6486 10.5405 16.5946 10.5676C16.3243 10.6757 15.3784 11.1081 15 11.6486C14 13.027 13.2432 15 11.5676 15H4.51351C2.02703 15 0 12.973 0 10.4595V10.3784C0 10.3243 0.0540545 10.2703 0.108109 10.2703H4.08108C4.16216 10.2703 4.21622 10.3514 4.21622 10.4054C4.18919 10.6486 4.24324 10.9189 4.35135 11.1622C4.59459 11.6486 5.08108 11.9189 5.59459 11.9189H7.54054V10.4054H5.62162C5.51351 10.4054 5.45946 10.2973 5.51351 10.2162C5.54054 10.1892 5.56757 10.1622 5.59459 10.1081C5.78378 9.83784 6.02703 9.45946 6.2973 9C6.48649 8.7027 6.64865 8.35135 6.78378 8.02703C6.81081 7.97297 6.83784 7.91892 6.86486 7.83784C6.89189 7.72973 6.94594 7.62162 6.97297 7.54054C7 7.45946 7.02703 7.37838 7.05405 7.2973C7.10811 7.02703 7.13514 6.72973 7.13514 6.4054C7.13514 6.2973 7.13513 6.16216 7.10811 6.02702C7.10811 5.89189 7.08108 5.75675 7.08108 5.62162C7.08108 5.51351 7.05405 5.37838 7.02702 5.27027C7 5.08108 6.97297 4.91892 6.91892 4.72973L6.89189 4.67567C6.86486 4.56756 6.83784 4.43243 6.78378 4.32432C6.67567 3.94595 6.54054 3.56757 6.4054 3.24324C6.35135 3.10811 6.2973 2.97297 6.24324 2.83784C6.16216 2.64865 6.08108 2.45946 6 2.2973C5.97297 2.21622 5.91892 2.16216 5.89189 2.08108C5.86486 2 5.81081 1.91892 5.78378 1.83783C5.75676 1.78378 5.72973 1.72973 5.7027 1.67567L5.45946 1.24324C5.43243 1.18919 5.48649 1.10811 5.54054 1.13513L7.02702 1.54054L7.21622 1.59459L7.43243 1.64865L7.51351 1.67567V0.783782C7.51351 0.35135 7.86486 0 8.27027 0C8.48649 0 8.67567 0.0810778 8.81081 0.216213C8.94594 0.351348 9.02703 0.540537 9.02703 0.756753V2.05405L9.18919 2.1081C9.18919 2.1081 9.21622 2.10811 9.21622 2.13513C9.24324 2.16216 9.2973 2.21621 9.37838 2.27027C9.43243 2.32432 9.48649 2.37838 9.56757 2.43243C9.7027 2.54054 9.89189 2.7027 10.0811 2.86486C10.1351 2.91892 10.1892 2.94594 10.2162 3C10.4595 3.21621 10.7297 3.48649 11 3.78378C11.0811 3.86486 11.1351 3.94594 11.2162 4.02703C11.2973 4.10811 11.3513 4.21621 11.4324 4.2973C11.5135 4.4054 11.6216 4.54054 11.7027 4.64865C11.7297 4.7027 11.7838 4.75675 11.8108 4.83784C11.9189 5 12 5.16216 12.1081 5.32432C12.1351 5.4054 12.1892 5.48648 12.2162 5.56756C12.3243 5.78378 12.4054 6 12.4324 6.24324C12.4595 6.29729 12.4595 6.35135 12.4595 6.37838C12.4865 6.43243 12.4865 6.51351 12.4865 6.59459C12.5135 6.83784 12.4865 7.05405 12.4595 7.2973C12.4324 7.40541 12.4054 7.48648 12.3784 7.59459C12.3513 7.67567 12.3243 7.78378 12.2703 7.89189C12.1892 8.08108 12.0811 8.27027 11.973 8.45946C11.9459 8.51351 11.8919 8.59459 11.8378 8.67567C11.7838 8.75675 11.7297 8.81081 11.7027 8.89189C11.6486 8.97297 11.5676 9.05405 11.5135 9.13513C11.4595 9.21621 11.4054 9.2973 11.3243 9.37838C11.2432 9.48649 11.1351 9.59459 11.0541 9.7027C11 9.75675 10.9459 9.83784 10.8649 9.89189C10.8108 9.94594 10.7568 10.027 10.6757 10.0811C10.5946 10.1622 10.5135 10.2432 10.4324 10.2973L10.2703 10.4324C10.2432 10.4595 10.2162 10.4595 10.1892 10.4595H9V11.973H10.4865C10.8108 11.973 11.1351 11.8649 11.3784 11.6486C11.4595 11.5676 11.8378 11.2432 12.2973 10.7568C12.3243 10.7297 12.3243 10.7297 12.3514 10.7297L16.4595 9.54054C16.6216 9.45946 16.6757 9.51351 16.6757 9.59459Z" fill="#A0A1A9"/>
</svg>
