
<svg width="21" height="20" viewBox="0 0 21 20" fill="none" xmlns="http://www.w3.org/2000/svg">
<rect width="21" height="20" rx="5" fill="#7A65FB"/>
<path d="M6.61633 10.1405L6.64876 10.0919L8.75687 6.8C8.7893 6.75135 8.85416 6.75135 8.8866 6.81621C9.24335 7.61081 9.53525 8.58378 9.40552 9.2C9.34065 9.45946 9.17849 9.8 8.98389 10.1081C8.96768 10.1568 8.93525 10.2054 8.90281 10.2378C8.8866 10.2541 8.87038 10.2703 8.83795 10.2703H6.66498C6.61633 10.2541 6.58389 10.1892 6.61633 10.1405Z" fill="white"/>
<path d="M16.0054 10.7568V11.2757C16.0054 11.3081 15.9892 11.3243 15.9568 11.3405C15.7946 11.4054 15.227 11.6649 15 11.9892C14.4 12.8162 13.9459 14 12.9405 14H8.70811C7.21622 14 6 12.7838 6 11.2757V11.227C6 11.1946 6.03243 11.1622 6.06487 11.1622H8.44865C8.4973 11.1622 8.52973 11.2108 8.52973 11.2432C8.51351 11.3892 8.54595 11.5513 8.61081 11.6973C8.75676 11.9892 9.04865 12.1513 9.35676 12.1513H10.5243V11.2432H9.37297C9.30811 11.2432 9.27568 11.1784 9.30811 11.1297C9.32432 11.1135 9.34054 11.0973 9.35676 11.0649C9.47027 10.9027 9.61622 10.6757 9.77838 10.4C9.89189 10.2216 9.98919 10.0108 10.0703 9.81622C10.0865 9.78378 10.1027 9.75135 10.1189 9.7027C10.1351 9.63784 10.1676 9.57297 10.1838 9.52432C10.2 9.47567 10.2162 9.42703 10.2324 9.37838C10.2649 9.21622 10.2811 9.03784 10.2811 8.84324C10.2811 8.77838 10.2811 8.6973 10.2649 8.61621C10.2649 8.53513 10.2486 8.45405 10.2486 8.37297C10.2486 8.30811 10.2324 8.22703 10.2162 8.16216C10.2 8.04865 10.1838 7.95135 10.1514 7.83784L10.1351 7.8054C10.1189 7.74054 10.1027 7.65946 10.0703 7.59459C10.0054 7.36757 9.92432 7.14054 9.84324 6.94595C9.81081 6.86486 9.77838 6.78378 9.74595 6.7027C9.6973 6.58919 9.64865 6.47568 9.6 6.37838C9.58378 6.32973 9.55135 6.2973 9.53513 6.24865C9.51892 6.2 9.48649 6.15135 9.47027 6.1027C9.45405 6.07027 9.43784 6.03784 9.42162 6.0054L9.27568 5.74594C9.25946 5.71351 9.29189 5.66486 9.32432 5.68108L10.2162 5.92432L10.3297 5.95676L10.4595 5.98919L10.5081 6.0054V5.47027C10.5081 5.21081 10.7189 5 10.9622 5C11.0919 5 11.2054 5.04865 11.2865 5.12973C11.3676 5.21081 11.4162 5.32432 11.4162 5.45405V6.23243L11.5135 6.26486C11.5135 6.26486 11.5297 6.26486 11.5297 6.28108C11.5459 6.2973 11.5784 6.32973 11.627 6.36216C11.6595 6.39459 11.6919 6.42703 11.7405 6.45946C11.8216 6.52432 11.9351 6.62162 12.0486 6.71892C12.0811 6.75135 12.1135 6.76757 12.1297 6.8C12.2757 6.92973 12.4378 7.09189 12.6 7.27027C12.6486 7.31892 12.6811 7.36757 12.7297 7.41622C12.7784 7.46486 12.8108 7.52973 12.8595 7.57838C12.9081 7.64324 12.973 7.72432 13.0216 7.78919C13.0378 7.82162 13.0703 7.85405 13.0865 7.9027C13.1514 8 13.2 8.0973 13.2649 8.19459C13.2811 8.24324 13.3135 8.29189 13.3297 8.34054C13.3946 8.47027 13.4432 8.6 13.4595 8.74594C13.4757 8.77838 13.4757 8.81081 13.4757 8.82703C13.4919 8.85946 13.4919 8.90811 13.4919 8.95676C13.5081 9.1027 13.4919 9.23243 13.4757 9.37838C13.4595 9.44324 13.4432 9.49189 13.427 9.55676C13.4108 9.6054 13.3946 9.67027 13.3622 9.73513C13.3135 9.84865 13.2486 9.96216 13.1838 10.0757C13.1676 10.1081 13.1351 10.1568 13.1027 10.2054C13.0703 10.2541 13.0378 10.2865 13.0216 10.3351C12.9892 10.3838 12.9405 10.4324 12.9081 10.4811C12.8757 10.5297 12.8432 10.5784 12.7946 10.627C12.7459 10.6919 12.6811 10.7568 12.6324 10.8216C12.6 10.8541 12.5676 10.9027 12.5189 10.9351C12.4865 10.9676 12.4541 11.0162 12.4054 11.0486C12.3568 11.0973 12.3081 11.1459 12.2595 11.1784L12.1622 11.2595C12.1459 11.2757 12.1297 11.2757 12.1135 11.2757H11.4V12.1838H12.2919C12.4865 12.1838 12.6811 12.1189 12.827 11.9892C12.8757 11.9405 13.1027 11.7459 13.3784 11.4541C13.3946 11.4378 13.3946 11.4378 13.4108 11.4378L15.8757 10.7243C15.973 10.6757 16.0054 10.7081 16.0054 10.7568Z" fill="white"/>
</svg>
