<svg width="43" height="43" viewBox="0 0 43 43" fill="none" xmlns="http://www.w3.org/2000/svg">
<rect width="43" height="43" rx="5" fill="#A0A1A9"/>
<path d="M13.1703 21.7619L13.2319 21.6695L17.2351 15.4183C17.2967 15.3259 17.4199 15.3259 17.4815 15.4491C18.159 16.958 18.7132 18.8056 18.4669 19.9758C18.3437 20.4685 18.0358 21.1152 17.6662 21.7003C17.6355 21.7927 17.5739 21.885 17.5123 21.9466C17.4815 21.9774 17.4507 22.0082 17.3891 22.0082H13.2627C13.1703 21.9774 13.1087 21.8542 13.1703 21.7619Z" fill="white"/>
<path d="M31 22.9319V23.9173C31 23.9789 30.9692 24.0097 30.9076 24.0405C30.5997 24.1637 29.5219 24.6564 29.0908 25.2723C27.9514 26.8428 27.0891 29.0908 25.1799 29.0908H17.1426C14.3096 29.0908 12 26.7812 12 23.9173V23.825C12 23.7634 12.0616 23.7018 12.1232 23.7018H16.6499C16.7423 23.7018 16.8039 23.7942 16.8039 23.8558C16.7731 24.1329 16.8347 24.4408 16.9579 24.718C17.235 25.2723 17.7893 25.5802 18.3744 25.5802H20.5916V23.8558H18.4052C18.282 23.8558 18.2204 23.7326 18.282 23.6402C18.3128 23.6094 18.3436 23.5786 18.3744 23.517C18.5899 23.2091 18.8671 22.778 19.175 22.2545C19.3906 21.9157 19.5754 21.5154 19.7293 21.1459C19.7601 21.0843 19.7909 21.0227 19.8217 20.9303C19.8525 20.8071 19.9141 20.684 19.9449 20.5916C19.9757 20.4992 20.0065 20.4068 20.0373 20.3144C20.0989 20.0065 20.1297 19.6677 20.1297 19.2982C20.1297 19.175 20.1297 19.0211 20.0989 18.8671C20.0989 18.7131 20.0681 18.5592 20.0681 18.4052C20.0681 18.282 20.0373 18.128 20.0065 18.0049C19.9757 17.7893 19.9449 17.6045 19.8833 17.389L19.8525 17.3274C19.8217 17.2042 19.7909 17.0502 19.7293 16.9271C19.6062 16.4959 19.4522 16.0648 19.2982 15.6953C19.2366 15.5413 19.175 15.3874 19.1135 15.2334C19.0211 15.0178 18.9287 14.8023 18.8363 14.6175C18.8055 14.5251 18.7439 14.4635 18.7131 14.3711C18.6823 14.2788 18.6207 14.1864 18.59 14.094C18.5592 14.0324 18.5284 13.9708 18.4976 13.9092L18.2204 13.4165C18.1896 13.3549 18.2512 13.2626 18.3128 13.2934L20.0065 13.7553L20.222 13.8169L20.4684 13.8784L20.5608 13.9092V12.893C20.5608 12.4003 20.9611 12 21.423 12C21.6694 12 21.8849 12.0924 22.0389 12.2463C22.1929 12.4003 22.2853 12.6159 22.2853 12.8622V14.3404L22.47 14.4019C22.47 14.4019 22.5008 14.4019 22.5008 14.4327C22.5316 14.4635 22.5932 14.5251 22.6856 14.5867C22.7472 14.6483 22.8088 14.7099 22.9011 14.7715C23.0551 14.8947 23.2707 15.0794 23.4862 15.2642C23.5478 15.3258 23.6094 15.3566 23.6402 15.4181C23.9173 15.6645 24.2253 15.9724 24.5332 16.3112C24.6256 16.4036 24.6872 16.4959 24.7796 16.5883C24.872 16.6807 24.9335 16.8039 25.0259 16.8963C25.1183 17.0194 25.2415 17.1734 25.3339 17.2966C25.3647 17.3582 25.4263 17.4198 25.4571 17.5122C25.5802 17.6969 25.6726 17.8817 25.7958 18.0664C25.8266 18.1588 25.8882 18.2512 25.919 18.3436C26.0421 18.5899 26.1345 18.8363 26.1653 19.1134C26.1961 19.175 26.1961 19.2366 26.1961 19.2674C26.2269 19.329 26.2269 19.4214 26.2269 19.5138C26.2577 19.7909 26.2269 20.0373 26.1961 20.3144C26.1653 20.4376 26.1345 20.53 26.1037 20.6532C26.0729 20.7455 26.0421 20.8687 25.9805 20.9919C25.8882 21.2075 25.765 21.423 25.6418 21.6386C25.611 21.7002 25.5494 21.7925 25.4878 21.8849C25.4263 21.9773 25.3647 22.0389 25.3339 22.1313C25.2723 22.2237 25.1799 22.316 25.1183 22.4084C25.0567 22.5008 24.9951 22.5932 24.9028 22.6856C24.8104 22.8088 24.6872 22.9319 24.5948 23.0551C24.5332 23.1167 24.4716 23.2091 24.3793 23.2707C24.3177 23.3322 24.2561 23.4246 24.1637 23.4862C24.0713 23.5786 23.9789 23.671 23.8865 23.7326L23.7018 23.8865C23.671 23.9173 23.6402 23.9173 23.6094 23.9173H22.2545V25.6418H23.9481C24.3177 25.6418 24.6872 25.5186 24.9643 25.2723C25.0567 25.1799 25.4878 24.8104 26.0113 24.2561C26.0421 24.2253 26.0421 24.2253 26.0729 24.2253L30.7536 22.8703C30.9384 22.778 31 22.8395 31 22.9319Z" fill="white"/>
</svg>
