<svg width="22" height="17" viewBox="0 0 22 17" fill="none" xmlns="http://www.w3.org/2000/svg">
<g clip-path="url(#clip0_15_1366)">
<path d="M18.6239 1.51386C17.2217 0.872061 15.7181 0.399214 14.1459 0.128394C14.1173 0.123168 14.0887 0.13623 14.0739 0.162354C13.8805 0.505448 13.6663 0.953043 13.5163 1.30485C11.8254 1.05232 10.1431 1.05232 8.48679 1.30485C8.33676 0.945223 8.11478 0.505448 7.92053 0.162354C7.90578 0.137101 7.87718 0.124039 7.84855 0.128394C6.27725 0.398348 4.7736 0.871196 3.37052 1.51386C3.35838 1.51908 3.34797 1.5278 3.34106 1.53911C0.488942 5.78954 -0.292371 9.9355 0.0909151 14.0301C0.0926494 14.0501 0.103922 14.0693 0.119532 14.0814C2.00127 15.4599 3.82406 16.2968 5.61301 16.8515C5.64164 16.8602 5.67197 16.8497 5.69019 16.8262C6.11337 16.2498 6.49059 15.6419 6.81402 15.0027C6.83311 14.9653 6.81489 14.9209 6.77588 14.9061C6.17754 14.6797 5.6078 14.4036 5.05975 14.0902C5.0164 14.0649 5.01293 14.003 5.05281 13.9734C5.16814 13.8872 5.2835 13.7975 5.39363 13.707C5.41355 13.6904 5.44131 13.6869 5.46474 13.6974C9.06518 15.3371 12.9631 15.3371 16.521 13.6974C16.5445 13.6861 16.5722 13.6896 16.593 13.7061C16.7032 13.7967 16.8185 13.8872 16.9347 13.9734C16.9746 14.003 16.972 14.0649 16.9286 14.0902C16.3806 14.4097 15.8108 14.6797 15.2116 14.9052C15.1726 14.92 15.1553 14.9653 15.1744 15.0027C15.5047 15.641 15.882 16.2489 16.2973 16.8254C16.3147 16.8497 16.3459 16.8602 16.3745 16.8515C18.1721 16.2968 19.9949 15.4599 21.8766 14.0814C21.8931 14.0693 21.9035 14.051 21.9053 14.0309C22.364 9.29717 21.1369 5.18521 18.6525 1.53998C18.6465 1.5278 18.6361 1.51908 18.6239 1.51386ZM7.35169 11.5369C6.26771 11.5369 5.37454 10.5442 5.37454 9.32505C5.37454 8.1059 6.25039 7.11319 7.35169 7.11319C8.46163 7.11319 9.34616 8.11462 9.32881 9.32505C9.32881 10.5442 8.45296 11.5369 7.35169 11.5369ZM14.6619 11.5369C13.5779 11.5369 12.6847 10.5442 12.6847 9.32505C12.6847 8.1059 13.5606 7.11319 14.6619 7.11319C15.7718 7.11319 16.6563 8.11462 16.639 9.32505C16.639 10.5442 15.7718 11.5369 14.6619 11.5369Z" fill="#A0A1A9"/>
</g>
<defs>
<clipPath id="clip0_15_1366">
<rect width="22" height="17" fill="white"/>
</clipPath>
</defs>
</svg>
