<svg width="21" height="20" viewBox="0 0 21 20" fill="none" xmlns="http://www.w3.org/2000/svg">
<rect width="21" height="20" rx="5" fill="#7A65FB"/>
<g clip-path="url(#clip0_554_2)">
<path d="M15.1585 5.80146C14.3937 5.46169 13.5735 5.21136 12.7159 5.06798C12.7003 5.06522 12.6847 5.07213 12.6767 5.08596C12.5712 5.2676 12.4544 5.50456 12.3725 5.69081C11.4502 5.55712 10.5326 5.55712 9.62916 5.69081C9.54732 5.50042 9.42624 5.2676 9.32029 5.08596C9.31224 5.07259 9.29664 5.06568 9.28102 5.06798C8.42395 5.2109 7.60378 5.46123 6.83847 5.80146C6.83184 5.80423 6.82616 5.80884 6.82239 5.81483C5.2667 8.06506 4.84052 10.26 5.04959 12.4277C5.05054 12.4383 5.05668 12.4484 5.0652 12.4549C6.0916 13.1847 7.08585 13.6277 8.06164 13.9214C8.07726 13.926 8.0938 13.9205 8.10374 13.908C8.33456 13.6028 8.54032 13.281 8.71674 12.9426C8.72715 12.9228 8.71721 12.8993 8.69593 12.8915C8.36957 12.7716 8.0588 12.6255 7.75986 12.4595C7.73622 12.4461 7.73433 12.4134 7.75608 12.3977C7.81899 12.3521 7.88191 12.3046 7.94198 12.2566C7.95285 12.2479 7.96799 12.246 7.98077 12.2516C9.94464 13.1197 12.0708 13.1197 14.0115 12.2516C14.0243 12.2456 14.0394 12.2474 14.0507 12.2562C14.1108 12.3041 14.1737 12.3521 14.2371 12.3977C14.2589 12.4134 14.2574 12.4461 14.2338 12.4595C13.9349 12.6287 13.6241 12.7716 13.2973 12.891C13.276 12.8989 13.2665 12.9228 13.2769 12.9426C13.4571 13.2806 13.6629 13.6024 13.8894 13.9076C13.8989 13.9205 13.9159 13.926 13.9315 13.9214C14.9121 13.6277 15.9063 13.1847 16.9327 12.4549C16.9417 12.4484 16.9474 12.4388 16.9483 12.4282C17.1985 9.92204 16.5292 7.74512 15.1741 5.81529C15.1708 5.80884 15.1651 5.80423 15.1585 5.80146ZM9.01001 11.1078C8.41875 11.1078 7.93157 10.5822 7.93157 9.9368C7.93157 9.29137 8.4093 8.76582 9.01001 8.76582C9.61544 8.76582 10.0979 9.29599 10.0884 9.9368C10.0884 10.5822 9.6107 11.1078 9.01001 11.1078ZM12.9974 11.1078C12.4061 11.1078 11.9189 10.5822 11.9189 9.9368C11.9189 9.29137 12.3967 8.76582 12.9974 8.76582C13.6028 8.76582 14.0853 9.29599 14.0758 9.9368C14.0758 10.5822 13.6028 11.1078 12.9974 11.1078Z" fill="white"/>
</g>
<defs>
<clipPath id="clip0_554_2">
<rect width="12" height="9" fill="white" transform="translate(5 5)"/>
</clipPath>
</defs>
</svg>
