
<svg width="17" height="17" viewBox="0 0 17 17" fill="none" xmlns="http://www.w3.org/2000/svg">
<path d="M12.6999 10.1694C12.5481 10.4193 12.595 10.7919 12.7981 10.9947L16.6265 14.8234C17.1245 15.3215 17.1245 16.1287 16.6265 16.6265C16.1287 17.1245 15.3215 17.1245 14.8234 16.6265L10.9947 12.7981C10.7889 12.592 10.4178 12.5511 10.1643 12.7026C10.1643 12.7026 10.0707 12.7723 9.77598 12.9161C8.87711 13.3542 7.86743 13.6 6.80015 13.6C3.04467 13.6 0 10.5557 0 6.80015C0 3.04467 3.04459 0 6.80015 0C10.5556 0 13.6 3.04459 13.6 6.80015C13.6 7.87092 13.3525 8.88424 12.9113 9.78547C12.7687 10.0766 12.7 10.1694 12.7 10.1694H12.6999ZM6.80016 11.0501C9.14723 11.0501 11.0502 9.14718 11.0502 6.80012C11.0502 4.45275 9.14723 2.55012 6.80016 2.55012C4.4528 2.55012 2.55017 4.45275 2.55017 6.80012C2.55017 9.14718 4.4528 11.0501 6.80016 11.0501Z" fill="white"/>
</svg>
