
<svg width="21" height="22" viewBox="0 0 21 22" fill="none" xmlns="http://www.w3.org/2000/svg">
<path d="M20.9324 9.34024C20.8988 9.04393 20.5542 8.82339 20.256 8.82339C19.6219 8.83732 19.0101 8.59025 18.5637 8.13976C18.1174 7.68928 17.8755 7.07528 17.8953 6.44135C17.915 5.80754 18.1943 5.20966 18.6678 4.78777C18.7777 4.68813 18.8457 4.55038 18.8577 4.4025C18.8699 4.25463 18.8252 4.10765 18.7328 3.99145C18.2421 3.37084 17.6833 2.8071 17.067 2.31089C16.9503 2.21769 16.8026 2.1727 16.6538 2.18472C16.5051 2.19688 16.3665 2.26532 16.2665 2.37596C15.9376 2.72239 15.5132 2.96329 15.0473 3.06837C14.5813 3.17344 14.0946 3.13798 13.6489 2.96623C13.2072 2.77733 12.8344 2.457 12.5812 2.04888C12.3278 1.6406 12.2063 1.1645 12.233 0.684876C12.2409 0.53584 12.1919 0.3893 12.096 0.274988C12.0001 0.160684 11.8643 0.0871215 11.7161 0.0692419C10.9317 -0.02088 10.1396 -0.0230783 9.35475 0.0629406C9.20865 0.0792066 9.07397 0.14984 8.97753 0.260771C8.88096 0.371556 8.82967 0.514728 8.83378 0.66173C8.85078 1.13712 8.72197 1.6065 8.46479 2.00671C8.2076 2.40692 7.8342 2.71904 7.39475 2.90122C6.95072 3.06622 6.46832 3.09832 6.0064 2.99339C5.54452 2.88861 5.12319 2.65136 4.79392 2.31096C4.69442 2.20208 4.55755 2.13496 4.41071 2.1228C4.26372 2.11078 4.11777 2.15474 4.00187 2.24575C3.3735 2.73914 2.80402 3.30306 2.30447 3.92645C2.21186 4.04295 2.16658 4.19022 2.17786 4.33866C2.18915 4.48696 2.25611 4.62574 2.36529 4.72687C2.72461 5.04882 2.97476 5.47454 3.0813 5.94508C3.18783 6.41563 3.14534 6.90757 2.95981 7.3529C2.76008 7.78695 2.43667 8.15242 2.03001 8.40362C1.6235 8.65479 1.15179 8.78038 0.674185 8.7647C0.525885 8.75532 0.37978 8.80398 0.266961 8.9004C0.153978 8.99697 0.0830522 9.13355 0.0691305 9.2814C-0.0230435 10.0744 -0.0230435 10.8752 0.0691305 11.668C0.0963873 11.9747 0.453657 12.1848 0.754076 12.1848C1.21701 12.181 1.67026 12.3164 2.05539 12.5734C2.44052 12.8303 2.73944 13.197 2.91369 13.6259C3.09174 14.067 3.13087 14.5519 3.02624 15.0159C2.92146 15.4798 2.67776 15.9007 2.32752 16.2227C2.2182 16.3222 2.15065 16.4595 2.13848 16.6069C2.12647 16.7542 2.17072 16.9007 2.26246 17.0168C2.7506 17.6382 3.30818 18.2022 3.92425 18.6973C4.04032 18.791 4.18773 18.8368 4.33647 18.8254C4.4852 18.8141 4.62398 18.7466 4.72467 18.6365C5.05409 18.2895 5.47891 18.0479 5.94551 17.942C6.41212 17.8362 6.89967 17.871 7.34647 18.042C7.78948 18.2287 8.16358 18.5481 8.41755 18.9564C8.67151 19.3645 8.7927 19.8414 8.76457 20.3213C8.75651 20.4703 8.80545 20.6169 8.90144 20.7312C8.99742 20.8455 9.13312 20.9189 9.28127 20.9369C9.68309 20.9825 10.0871 21.0057 10.4914 21.0063C10.8768 21.007 11.2619 20.9853 11.6447 20.941C11.7917 20.9248 11.9269 20.8536 12.0235 20.7417C12.1201 20.6299 12.171 20.4857 12.1658 20.3382C12.148 19.8631 12.2757 19.3938 12.5323 18.9935C12.7888 18.5931 13.1616 18.281 13.6006 18.0987C14.0444 17.9344 14.5265 17.9035 14.9875 18.0099C15.4485 18.1163 15.8684 18.3553 16.1952 18.6973C16.2947 18.8062 16.4315 18.8733 16.5784 18.8855C16.7254 18.8975 16.8713 18.8535 16.9872 18.7625C17.6146 18.2681 18.184 17.7042 18.6846 17.0818C18.7783 16.9657 18.8241 16.8182 18.8127 16.6696C18.8014 16.5208 18.7339 16.3821 18.6238 16.2814C18.1484 15.8623 17.866 15.2664 17.8426 14.6331C17.8193 13.9998 18.057 13.3848 18.5001 12.9318C18.9434 12.4789 19.5532 12.2277 20.1868 12.2372H20.3171H20.3169C20.466 12.2453 20.6125 12.1963 20.7268 12.1003C20.8411 12.0044 20.9147 11.8687 20.9326 11.7205C21.0205 10.9295 21.0205 10.1311 20.9326 9.34022L20.9324 9.34024ZM10.5145 14.027C9.58573 14.027 8.6949 13.6581 8.03809 13.0013C7.38128 12.3445 7.01244 11.4538 7.01244 10.5249C7.01244 9.59609 7.38128 8.70541 8.03809 8.0486C8.6949 7.39179 9.58573 7.02279 10.5145 7.02279C11.4433 7.02279 12.334 7.39179 12.9908 8.0486C13.6476 8.70541 14.0166 9.59609 14.0166 10.5249C14.0154 11.4534 13.6461 12.3435 12.9896 13C12.3331 13.6567 11.443 14.026 10.5145 14.027Z" fill="#A0A1A9"/>
</svg>
