
<svg width="43" height="43" viewBox="0 0 43 43" fill="none" xmlns="http://www.w3.org/2000/svg">
<rect width="43" height="43" rx="5" fill="#F5F4F6"/>
<path d="M16.1403 18.371H25.0247L23.8148 19.5053C23.5176 19.7822 23.3907 20.1964 23.482 20.5923C23.5732 20.9882 23.8688 21.3052 24.257 21.4241C24.6454 21.543 25.0677 21.4457 25.3648 21.1688L28.6539 18.0686C28.8757 17.8486 29.0002 17.5493 29.0002 17.2368C29.0002 16.9246 28.8757 16.6253 28.6539 16.4051L25.3648 13.3049V13.3051C25.0676 13.0282 24.6455 12.9309 24.257 13.0499C23.8688 13.1688 23.5732 13.4858 23.482 13.8816C23.3907 14.2774 23.5176 14.6917 23.8148 14.9686L25.0247 16.1029H16.1403C15.7352 16.1029 15.3607 16.3189 15.1582 16.6699C14.9554 17.0209 14.9554 17.4531 15.1582 17.8041C15.3607 18.1549 15.7352 18.3711 16.1403 18.3711V18.371Z" fill="#A0A1A9"/>
<path d="M18.6353 29.486C18.9325 29.7629 19.3547 29.8602 19.7432 29.7413C20.1314 29.6224 20.427 29.3054 20.5182 28.9096C20.6094 28.5137 20.4826 28.0994 20.1854 27.8225L18.9755 26.6882H27.8599C28.2649 26.6882 28.6394 26.4723 28.842 26.1213C29.0448 25.7703 29.0448 25.338 28.842 24.987C28.6394 24.6363 28.265 24.42 27.8599 24.42H18.9755L20.1854 23.2858C20.4826 23.0089 20.6094 22.5946 20.5182 22.1987C20.4269 21.8029 20.1313 21.4859 19.7432 21.367C19.3547 21.2481 18.9325 21.3454 18.6353 21.6223L15.3463 24.7225C15.1245 24.9424 15 25.2417 15 25.5542C15 25.8665 15.1245 26.1658 15.3463 26.386L18.6353 29.486Z" fill="#A0A1A9"/>
</svg>
