<svg width="21" height="20" viewBox="0 0 21 20" fill="none" xmlns="http://www.w3.org/2000/svg">
<rect width="21" height="20" rx="5" fill="#7A65FB"/>
<path d="M16 6.94694C15.6319 7.10786 15.2366 7.21615 14.8216 7.26499C15.2454 7.0151 15.5704 6.61943 15.7235 6.14766C15.3273 6.37901 14.8881 6.54712 14.4204 6.63799C14.0462 6.24535 13.5132 6 12.9232 6C11.7902 6 10.8717 6.90454 10.8717 8.01959C10.8717 8.17786 10.8902 8.33234 10.9248 8.47962C9.21988 8.39557 7.7084 7.59137 6.69613 6.36916C6.51998 6.66752 6.41883 7.01434 6.41883 7.38502C6.41883 8.08547 6.78074 8.70377 7.3311 9.06574C6.99496 9.05514 6.67844 8.96427 6.40191 8.81319C6.40191 8.8219 6.40191 8.82985 6.40191 8.83856C6.40191 9.81731 7.1088 10.6336 8.04761 10.8188C7.8757 10.865 7.69417 10.8896 7.50687 10.8896C7.37495 10.8896 7.24611 10.8767 7.12111 10.8536C7.38225 11.6559 8.13992 12.2401 9.03758 12.2564C8.33568 12.7982 7.4511 13.1212 6.4896 13.1212C6.32422 13.1212 6.16076 13.1117 6 13.0928C6.90804 13.6657 7.98608 14 9.14488 14C12.9186 14 14.9816 10.9225 14.9816 8.25358C14.9816 8.16612 14.9797 8.07904 14.9758 7.99233C15.3769 7.70723 15.725 7.3517 16 6.94694Z" fill="white"/>
</svg>
