
<svg width="18" height="13" viewBox="0 0 18 13" fill="none" xmlns="http://www.w3.org/2000/svg">
<path d="M17.4688 1.53879C16.843 1.80027 16.1709 1.97624 15.4654 2.05561C16.186 1.64953 16.7384 1.00658 16.9987 0.239955C16.3252 0.615884 15.5786 0.889062 14.7835 1.03673C14.1473 0.398694 13.2411 0 12.2382 0C10.312 0 8.7507 1.46988 8.7507 3.28184C8.7507 3.53902 8.78208 3.79005 8.84093 4.02939C5.94254 3.8928 3.37302 2.58597 1.65217 0.599886C1.35272 1.08472 1.18076 1.6483 1.18076 2.25065C1.18076 3.3889 1.79601 4.39363 2.73162 4.98183C2.16018 4.9646 1.62209 4.81693 1.15199 4.57144C1.15199 4.58559 1.15199 4.59851 1.15199 4.61266C1.15199 6.20313 2.35372 7.52965 3.94969 7.83052C3.65743 7.90558 3.34883 7.94557 3.03042 7.94557C2.80616 7.94557 2.58713 7.92465 2.37464 7.88712C2.81858 9.19087 4.10661 10.1402 5.63263 10.1667C4.43941 11.0471 2.93562 11.572 1.30106 11.572C1.01992 11.572 0.742047 11.5566 0.46875 11.5258C2.01242 12.4567 3.84508 13 5.81504 13C12.2303 13 15.7374 7.9991 15.7374 3.66208C15.7374 3.51995 15.7342 3.37844 15.7276 3.23754C16.4096 2.77424 17.0013 2.19651 17.4688 1.53879Z" fill="#A0A1A9"/>
</svg>
