<svg width="17" height="13" viewBox="0 0 17 13" fill="none" xmlns="http://www.w3.org/2000/svg">
<path d="M17 1.53879C16.3743 1.80027 15.7022 1.97624 14.9967 2.05561C15.7172 1.64953 16.2697 1.00658 16.5299 0.239955C15.8565 0.615884 15.1098 0.889062 14.3148 1.03673C13.6786 0.398694 12.7724 0 11.7694 0C9.84328 0 8.28195 1.46988 8.28195 3.28184C8.28195 3.53902 8.31333 3.79005 8.37218 4.02939C5.47379 3.8928 2.90427 2.58597 1.18342 0.599886C0.883966 1.08472 0.712011 1.6483 0.712011 2.25065C0.712011 3.3889 1.32726 4.39363 2.26287 4.98183C1.69143 4.9646 1.15334 4.81693 0.683243 4.57144C0.683243 4.58559 0.683243 4.59851 0.683243 4.61266C0.683243 6.20313 1.88497 7.52965 3.48094 7.83052C3.18868 7.90558 2.88008 7.94557 2.56167 7.94557C2.33741 7.94557 2.11838 7.92465 1.90589 7.88712C2.34983 9.19087 3.63786 10.1402 5.16388 10.1667C3.97066 11.0471 2.46687 11.572 0.832314 11.572C0.551171 11.572 0.273297 11.5566 0 11.5258C1.54367 12.4567 3.37633 13 5.34629 13C11.7616 13 15.2687 7.9991 15.2687 3.66208C15.2687 3.51995 15.2654 3.37844 15.2589 3.23754C15.9408 2.77424 16.5325 2.19651 17 1.53879Z" fill="#7A65FB"/>
</svg>
