
<svg width="18" height="15" viewBox="0 0 18 15" fill="none" xmlns="http://www.w3.org/2000/svg">
<path d="M17.1426 2.50012H11.1428C9.30548 2.50012 7.60769 3.45311 6.68911 5.00009C5.77031 6.54708 5.77031 8.45306 6.68911 10C7.60777 11.547 9.30559 12.5 11.1428 12.5H17.1426V14.1667C17.1426 14.3877 17.0524 14.5996 16.8916 14.7559C16.7309 14.9122 16.5128 15 16.2855 15H0.857087C0.629793 15 0.411682 14.9122 0.250969 14.7559C0.0902564 14.5996 0 14.3877 0 14.1667V0.833275C0 0.612294 0.0902564 0.400386 0.250969 0.244137C0.411682 0.0877492 0.629775 0 0.857087 0H16.2855C16.5128 0 16.7309 0.0877492 16.8916 0.244137C17.0524 0.400386 17.1426 0.612312 17.1426 0.833275V2.50012ZM11.1428 4.16682H18V10.8335H11.1428V10.8334C9.91792 10.8334 8.78606 10.1981 8.17362 9.16685C7.56119 8.13546 7.56119 6.86483 8.17362 5.83345C8.78606 4.80221 9.91792 4.16689 11.1428 4.16689V4.16682ZM11.1428 6.66679V8.33349H13.7142V6.66679H11.1428Z" fill="white"/>
</svg>
